<svg xmlns="http://www.w3.org/2000/svg" width="46" height="35" viewBox="0 0 46 35" fill="none"><path d="M0 0H46V35H0V0Z" fill="#74ACDF"></path><path d="M0 11.6665H46V23.3332H0V11.6665Z" fill="white"></path><path d="M22.7812 17.5909L24.7477 21.9309C24.7477 21.9309 24.7823 22.0149 24.8375 21.9939C24.8927 21.9659 24.8582 21.8819 24.8582 21.8819L23.2229 17.4019M23.1746 19.0959C23.147 19.7539 23.5472 20.1179 23.4989 20.7059C23.4437 21.3009 23.7611 21.6299 23.8439 21.8609C23.9129 22.0919 23.7611 22.2249 23.8232 22.2599C23.8922 22.2949 24.0301 22.1129 23.9887 21.7839C23.9404 21.4619 23.699 21.3639 23.7542 20.6429C23.8094 19.9219 23.4644 19.7539 23.5472 19.1029" fill="#F6B40E"></path><path d="M22.7812 17.5909L24.7477 21.9309C24.7477 21.9309 24.7823 22.0149 24.8375 21.9939C24.8927 21.9659 24.8582 21.8819 24.8582 21.8819L23.2229 17.4019M23.1746 19.0959C23.147 19.7539 23.5472 20.1179 23.4989 20.7059C23.4437 21.3009 23.7611 21.6299 23.8439 21.8609C23.9129 22.0919 23.7611 22.2249 23.8232 22.2599C23.8922 22.2949 24.0301 22.1129 23.9887 21.7839C23.9404 21.4619 23.699 21.3639 23.7542 20.6429C23.8094 19.9219 23.4644 19.7539 23.5472 19.1029" stroke="#85340A" stroke-width="0.132"></path><path d="M22.7627 17.4983L22.9424 22.2714C22.9424 22.2714 22.9426 22.3624 23.0015 22.3645C23.063 22.36 23.0629 22.269 23.0629 22.269L23.242 17.4952M22.5583 19.0415C22.2846 19.6387 22.5171 20.1303 22.2506 20.6548C21.9752 21.1831 22.1443 21.6103 22.1337 21.8558C22.1103 22.096 21.9199 22.16 21.9641 22.2164C22.0146 22.2756 22.2108 22.161 22.2966 21.841C22.3734 21.5247 22.1873 21.3404 22.5103 20.6957C22.8332 20.051 22.5779 19.7619 22.8999 19.1926" fill="#F6B40E"></path><path d="M22.7627 17.4983L22.9424 22.2714C22.9424 22.2714 22.9426 22.3624 23.0015 22.3645C23.063 22.36 23.0629 22.269 23.0629 22.269L23.242 17.4952M22.5583 19.0415C22.2846 19.6387 22.5171 20.1303 22.2506 20.6548C21.9752 21.1831 22.1443 21.6103 22.1337 21.8558C22.1103 22.096 21.9199 22.16 21.9641 22.2164C22.0146 22.2756 22.2108 22.161 22.2966 21.841C22.3734 21.5247 22.1873 21.3404 22.5103 20.6957C22.8332 20.051 22.5779 19.7619 22.8999 19.1926" stroke="#85340A" stroke-width="0.132"></path><path d="M22.7823 17.4056L21.1479 21.8851C21.1479 21.8851 21.1137 21.9693 21.1674 21.994C21.2259 22.0138 21.2601 21.9297 21.2601 21.9297L23.2263 17.5888M22.0114 18.7519C21.5333 19.1974 21.5626 19.7419 21.1186 20.123C20.6648 20.5042 20.6599 20.9645 20.5575 21.1872C20.4453 21.4001 20.2452 21.3852 20.2647 21.4545C20.2891 21.5288 20.5136 21.4991 20.7136 21.2367C20.9039 20.9744 20.8014 20.7318 21.343 20.2616C21.8846 19.7914 21.7577 19.4251 22.27 19.0242" fill="#F6B40E"></path><path d="M22.7823 17.4056L21.1479 21.8851C21.1479 21.8851 21.1137 21.9693 21.1674 21.994C21.2259 22.0138 21.2601 21.9297 21.2601 21.9297L23.2263 17.5888M22.0114 18.7519C21.5333 19.1974 21.5626 19.7419 21.1186 20.123C20.6648 20.5042 20.6599 20.9645 20.5575 21.1872C20.4453 21.4001 20.2452 21.3852 20.2647 21.4545C20.2891 21.5288 20.5136 21.4991 20.7136 21.2367C20.9039 20.9744 20.8014 20.7318 21.343 20.2616C21.8846 19.7914 21.7577 19.4251 22.27 19.0242" stroke="#85340A" stroke-width="0.132"></path><path d="M22.8337 17.3277L19.6339 20.8317C19.6339 20.8317 19.5706 20.8962 19.6109 20.9399C19.6575 20.9809 19.7208 20.9164 19.7208 20.9164L23.1749 17.6693M21.6137 18.2723C21.0039 18.4982 20.8255 19.0126 20.2716 19.1923C19.7086 19.3683 19.5305 19.7917 19.3518 19.9577C19.1678 20.1108 18.9886 20.0194 18.9805 20.091C18.975 20.1691 19.1936 20.2287 19.4773 20.064C19.7521 19.8955 19.7489 19.6317 20.4267 19.4075C21.1044 19.1833 21.1253 18.7957 21.7499 18.6242" fill="#F6B40E"></path><path d="M22.8337 17.3277L19.6339 20.8317C19.6339 20.8317 19.5706 20.8962 19.6109 20.9399C19.6575 20.9809 19.7208 20.9164 19.7208 20.9164L23.1749 17.6693M21.6137 18.2723C21.0039 18.4982 20.8255 19.0126 20.2716 19.1923C19.7086 19.3683 19.5305 19.7917 19.3518 19.9577C19.1678 20.1108 18.9886 20.0194 18.9805 20.091C18.975 20.1691 19.1936 20.2287 19.4773 20.064C19.7521 19.8955 19.7489 19.6317 20.4267 19.4075C21.1044 19.1833 21.1253 18.7957 21.7499 18.6242" stroke="#85340A" stroke-width="0.132"></path><path d="M23.2977 19.208C23.3322 19.838 23.6841 20.118 23.6151 20.699C23.7669 20.244 23.4012 19.887 23.4219 19.215M22.8906 17.549L24.2361 20.531L23.1114 17.458" fill="#85340A"></path><path d="M22.632 19.1928C22.4262 19.7882 22.6457 20.1835 22.3628 20.6935C22.6747 20.3321 22.4715 19.8603 22.7441 19.2475M22.8817 17.502L22.9999 20.7794L23.12 17.5037" fill="#85340A"></path><path d="M22.0212 18.9206C21.6065 19.3908 21.6602 19.8412 21.2064 20.2026C21.6309 19.9897 21.6211 19.475 22.1042 19.0146M22.8897 17.4555L21.7626 20.5293L23.1093 17.5495" fill="#85340A"></path><path d="M21.5601 18.4316C20.9996 18.7051 20.8793 19.142 20.3238 19.2997C20.7962 19.2679 20.9814 18.7885 21.6013 18.5507M22.9152 17.4152L20.7144 19.8175L23.0825 17.5873" fill="#85340A"></path><path d="M22.9114 17.2759L18.6334 19.2709C18.6334 19.2709 18.5506 19.3059 18.5713 19.3619C18.5989 19.4179 18.6817 19.3829 18.6817 19.3829L23.0977 17.7239M21.4279 17.6749C20.7793 17.6469 20.4205 18.0529 19.8409 18.0039C19.2544 17.9479 18.9301 18.2699 18.7024 18.3539C18.4747 18.4239 18.3436 18.2699 18.3091 18.3329C18.2746 18.4029 18.454 18.5429 18.7783 18.5009C19.0957 18.4519 19.1923 18.2069 19.903 18.2629C20.6137 18.3189 20.7793 17.9689 21.421 18.0529" fill="#F6B40E"></path><path d="M22.9114 17.2759L18.6334 19.2709C18.6334 19.2709 18.5506 19.3059 18.5713 19.3619C18.5989 19.4179 18.6817 19.3829 18.6817 19.3829L23.0977 17.7239M21.4279 17.6749C20.7793 17.6469 20.4205 18.0529 19.8409 18.0039C19.2544 17.9479 18.9301 18.2699 18.7024 18.3539C18.4747 18.4239 18.3436 18.2699 18.3091 18.3329C18.2746 18.4029 18.454 18.5429 18.7783 18.5009C19.0957 18.4519 19.1923 18.2069 19.903 18.2629C20.6137 18.3189 20.7793 17.9689 21.421 18.0529" stroke="#85340A" stroke-width="0.132"></path><path d="M23.0037 17.2582L18.2988 17.4405C18.2988 17.4405 18.2091 17.4407 18.2071 17.5005C18.2114 17.563 18.3011 17.5628 18.3011 17.5628L23.0068 17.7445M21.4826 17.0509C20.8939 16.7733 20.4093 17.0091 19.8923 16.7388C19.3715 16.4593 18.9505 16.6309 18.7084 16.6201C18.4716 16.5964 18.4086 16.4032 18.353 16.448C18.2947 16.4993 18.4076 16.6983 18.7231 16.7854C19.0348 16.8634 19.2165 16.6745 19.852 17.0022C20.4874 17.3298 20.7724 17.0707 21.3336 17.3975" fill="#F6B40E"></path><path d="M23.0037 17.2582L18.2988 17.4405C18.2988 17.4405 18.2091 17.4407 18.2071 17.5005C18.2114 17.563 18.3011 17.5628 18.3011 17.5628L23.0068 17.7445M21.4826 17.0509C20.8939 16.7733 20.4093 17.0091 19.8923 16.7388C19.3715 16.4593 18.9505 16.6309 18.7084 16.6201C18.4716 16.5964 18.4086 16.4032 18.353 16.448C18.2947 16.4993 18.4076 16.6983 18.7231 16.7854C19.0348 16.8634 19.2165 16.6745 19.852 17.0022C20.4874 17.3298 20.7724 17.0707 21.3336 17.3975" stroke="#85340A" stroke-width="0.132"></path><path d="M23.0948 17.2775L18.6793 15.6193C18.6793 15.6193 18.5964 15.5847 18.572 15.6391C18.5524 15.6985 18.6354 15.7332 18.6354 15.7332L22.9143 17.7279M21.7677 16.4954C21.3286 16.0104 20.7919 16.0401 20.4162 15.5896C20.0406 15.1293 19.5868 15.1244 19.3672 15.0204C19.1574 14.9066 19.1721 14.7036 19.1038 14.7234C19.0306 14.7482 19.0599 14.9759 19.3185 15.1788C19.577 15.3718 19.8161 15.2679 20.2796 15.8173C20.7431 16.3667 21.1042 16.238 21.4994 16.7578" fill="#F6B40E"></path><path d="M23.0948 17.2775L18.6793 15.6193C18.6793 15.6193 18.5964 15.5847 18.572 15.6391C18.5524 15.6985 18.6354 15.7332 18.6354 15.7332L22.9143 17.7279M21.7677 16.4954C21.3286 16.0104 20.7919 16.0401 20.4162 15.5896C20.0406 15.1293 19.5868 15.1244 19.3672 15.0204C19.1574 14.9066 19.1721 14.7036 19.1038 14.7234C19.0306 14.7482 19.0599 14.9759 19.3185 15.1788C19.577 15.3718 19.8161 15.2679 20.2796 15.8173C20.7431 16.3667 21.1042 16.238 21.4994 16.7578" stroke="#85340A" stroke-width="0.132"></path><path d="M23.1709 17.3303L19.717 14.0841C19.717 14.0841 19.6534 14.0199 19.6103 14.0607C19.5699 14.108 19.6335 14.1722 19.6335 14.1722L22.8342 17.6763M22.2398 16.0925C22.0171 15.4739 21.5101 15.293 21.3329 14.731C21.1594 14.1598 20.7421 13.9791 20.5785 13.7978C20.4276 13.6112 20.5177 13.4294 20.4471 13.4212C20.3701 13.4156 20.3113 13.6373 20.4736 13.9252C20.6397 14.204 20.8998 14.2008 21.1208 14.8883C21.3418 15.5758 21.7239 15.5971 21.8929 16.2307" fill="#F6B40E"></path><path d="M23.1709 17.3303L19.717 14.0841C19.717 14.0841 19.6534 14.0199 19.6103 14.0607C19.5699 14.108 19.6335 14.1722 19.6335 14.1722L22.8342 17.6763M22.2398 16.0925C22.0171 15.4739 21.5101 15.293 21.3329 14.731C21.1594 14.1598 20.7421 13.9791 20.5785 13.7978C20.4276 13.6112 20.5177 13.4294 20.4471 13.4212C20.3701 13.4156 20.3113 13.6373 20.4736 13.9252C20.6397 14.204 20.8998 14.2008 21.1208 14.8883C21.3418 15.5758 21.7239 15.5971 21.8929 16.2307" stroke="#85340A" stroke-width="0.132"></path><path d="M21.318 17.8012C20.697 17.8362 20.421 18.1932 19.8483 18.1232C20.2968 18.2772 20.6487 17.9062 21.3111 17.9272M22.9533 17.3882L20.0139 18.7532L23.043 17.6122" fill="#85340A"></path><path d="M21.3325 17.1245C20.7456 16.9157 20.356 17.1384 19.8533 16.8514C20.2095 17.1678 20.6746 16.9616 21.2786 17.2382M22.9992 17.3778L19.7686 17.4977L22.9975 17.6195" fill="#85340A"></path><path d="M21.6018 16.5053C21.1382 16.0846 20.6943 16.139 20.3381 15.6787C20.5479 16.1093 21.0553 16.0994 21.5091 16.5894M23.0459 17.3863L20.0161 16.2429L22.9532 17.6091" fill="#85340A"></path><path d="M22.0829 16.0374C21.8134 15.4687 21.3826 15.3466 21.2272 14.7831C21.2586 15.2624 21.7311 15.4502 21.9655 16.0791M23.0848 17.412L20.7169 15.1794L22.9151 17.5818" fill="#85340A"></path><path d="M23.2188 17.4091L21.2523 13.0691C21.2523 13.0691 21.2177 12.9851 21.1625 13.0061C21.1073 13.0341 21.1418 13.1181 21.1418 13.1181L22.7771 17.5981M22.8254 15.9041C22.853 15.2461 22.4528 14.8821 22.5011 14.2941C22.5563 13.6991 22.2389 13.3701 22.1561 13.1391C22.0871 12.9081 22.2389 12.7751 22.1768 12.7401C22.1078 12.7051 21.9699 12.8871 22.0113 13.2161C22.0596 13.5381 22.301 13.6361 22.2458 14.3571C22.1906 15.0781 22.5356 15.2461 22.4528 15.8971" fill="#F6B40E"></path><path d="M23.2188 17.4091L21.2523 13.0691C21.2523 13.0691 21.2177 12.9851 21.1625 13.0061C21.1073 13.0341 21.1418 13.1181 21.1418 13.1181L22.7771 17.5981M22.8254 15.9041C22.853 15.2461 22.4528 14.8821 22.5011 14.2941C22.5563 13.6991 22.2389 13.3701 22.1561 13.1391C22.0871 12.9081 22.2389 12.7751 22.1768 12.7401C22.1078 12.7051 21.9699 12.8871 22.0113 13.2161C22.0596 13.5381 22.301 13.6361 22.2458 14.3571C22.1906 15.0781 22.5356 15.2461 22.4528 15.8971" stroke="#85340A" stroke-width="0.132"></path><path d="M23.2373 17.5017L23.0576 12.7286C23.0576 12.7286 23.0574 12.6376 22.9985 12.6355C22.937 12.64 22.9371 12.731 22.9371 12.731L22.758 17.5048M23.4417 15.9585C23.7154 15.3613 23.4829 14.8697 23.7494 14.3452C24.0248 13.8169 23.8557 13.3897 23.8663 13.1442C23.8897 12.904 24.0801 12.84 24.0359 12.7836C23.9854 12.7244 23.7892 12.839 23.7034 13.159C23.6266 13.4753 23.8127 13.6596 23.4897 14.3043C23.1668 14.949 23.4221 15.2381 23.1001 15.8074" fill="#F6B40E"></path><path d="M23.2373 17.5017L23.0576 12.7286C23.0576 12.7286 23.0574 12.6376 22.9985 12.6355C22.937 12.64 22.9371 12.731 22.9371 12.731L22.758 17.5048M23.4417 15.9585C23.7154 15.3613 23.4829 14.8697 23.7494 14.3452C24.0248 13.8169 23.8557 13.3897 23.8663 13.1442C23.8897 12.904 24.0801 12.84 24.0359 12.7836C23.9854 12.7244 23.7892 12.839 23.7034 13.159C23.6266 13.4753 23.8127 13.6596 23.4897 14.3043C23.1668 14.949 23.4221 15.2381 23.1001 15.8074" stroke="#85340A" stroke-width="0.132"></path><path d="M23.2177 17.5944L24.8521 13.1149C24.8521 13.1149 24.8863 13.0307 24.8326 13.006C24.7741 12.9862 24.7399 13.0703 24.7399 13.0703L22.7737 17.4112M23.9886 16.2481C24.4667 15.8026 24.4374 15.2581 24.8814 14.877C25.3352 14.4958 25.3401 14.0355 25.4425 13.8128C25.5547 13.5999 25.7548 13.6148 25.7353 13.5455C25.7109 13.4712 25.4864 13.5009 25.2864 13.7633C25.0961 14.0256 25.1986 14.2682 24.657 14.7384C24.1154 15.2086 24.2423 15.5749 23.73 15.9758" fill="#F6B40E"></path><path d="M23.2177 17.5944L24.8521 13.1149C24.8521 13.1149 24.8863 13.0307 24.8326 13.006C24.7741 12.9862 24.7399 13.0703 24.7399 13.0703L22.7737 17.4112M23.9886 16.2481C24.4667 15.8026 24.4374 15.2581 24.8814 14.877C25.3352 14.4958 25.3401 14.0355 25.4425 13.8128C25.5547 13.5999 25.7548 13.6148 25.7353 13.5455C25.7109 13.4712 25.4864 13.5009 25.2864 13.7633C25.0961 14.0256 25.1986 14.2682 24.657 14.7384C24.1154 15.2086 24.2423 15.5749 23.73 15.9758" stroke="#85340A" stroke-width="0.132"></path><path d="M23.1663 17.6723L26.3661 14.1683C26.3661 14.1683 26.4294 14.1038 26.3891 14.0601C26.3425 14.0191 26.2792 14.0836 26.2792 14.0836L22.8251 17.3307M24.3863 16.7277C24.9961 16.5018 25.1745 15.9874 25.7284 15.8077C26.2914 15.6317 26.4695 15.2083 26.6482 15.0423C26.8322 14.8892 27.0114 14.9806 27.0195 14.909C27.025 14.8309 26.8064 14.7713 26.5227 14.936C26.2479 15.1045 26.2511 15.3683 25.5733 15.5925C24.8956 15.8167 24.8747 16.2043 24.2501 16.3758" fill="#F6B40E"></path><path d="M23.1663 17.6723L26.3661 14.1683C26.3661 14.1683 26.4294 14.1038 26.3891 14.0601C26.3425 14.0191 26.2792 14.0836 26.2792 14.0836L22.8251 17.3307M24.3863 16.7277C24.9961 16.5018 25.1745 15.9874 25.7284 15.8077C26.2914 15.6317 26.4695 15.2083 26.6482 15.0423C26.8322 14.8892 27.0114 14.9806 27.0195 14.909C27.025 14.8309 26.8064 14.7713 26.5227 14.936C26.2479 15.1045 26.2511 15.3683 25.5733 15.5925C24.8956 15.8167 24.8747 16.2043 24.2501 16.3758" stroke="#85340A" stroke-width="0.132"></path><path d="M22.7023 15.792C22.6678 15.162 22.3159 14.882 22.3849 14.301C22.2331 14.756 22.5988 15.113 22.5781 15.785M23.1094 17.451L21.7639 14.469L22.8886 17.542" fill="#85340A"></path><path d="M23.368 15.8072C23.5738 15.2118 23.3543 14.8165 23.6372 14.3065C23.3253 14.6679 23.5285 15.1397 23.2559 15.7525M23.1183 17.498L23.0001 14.2206L22.88 17.4963" fill="#85340A"></path><path d="M23.9788 16.0794C24.3935 15.6092 24.3398 15.1588 24.7936 14.7974C24.3691 15.0103 24.3789 15.525 23.8958 15.9854M23.1103 17.5445L24.2374 14.4707L22.8907 17.4505" fill="#85340A"></path><path d="M24.4399 16.5684C25.0004 16.2949 25.1207 15.858 25.6762 15.7003C25.2038 15.7321 25.0186 16.2115 24.3987 16.4493M23.0848 17.5848L25.2856 15.1825L22.9175 17.4127" fill="#85340A"></path><path d="M23.0886 17.7241L27.3666 15.7291C27.3666 15.7291 27.4494 15.6941 27.4287 15.6381C27.4011 15.5821 27.3183 15.6171 27.3183 15.6171L22.9023 17.2761M24.5721 17.3251C25.2207 17.3531 25.5795 16.9471 26.1591 16.9961C26.7456 17.0521 27.0699 16.7301 27.2976 16.6461C27.5253 16.5761 27.6564 16.7301 27.6909 16.6671C27.7254 16.5971 27.546 16.4571 27.2217 16.4991C26.9043 16.5481 26.8077 16.7931 26.097 16.7371C25.3863 16.6811 25.2207 17.0311 24.579 16.9471" fill="#F6B40E"></path><path d="M23.0886 17.7241L27.3666 15.7291C27.3666 15.7291 27.4494 15.6941 27.4287 15.6381C27.4011 15.5821 27.3183 15.6171 27.3183 15.6171L22.9023 17.2761M24.5721 17.3251C25.2207 17.3531 25.5795 16.9471 26.1591 16.9961C26.7456 17.0521 27.0699 16.7301 27.2976 16.6461C27.5253 16.5761 27.6564 16.7301 27.6909 16.6671C27.7254 16.5971 27.546 16.4571 27.2217 16.4991C26.9043 16.5481 26.8077 16.7931 26.097 16.7371C25.3863 16.6811 25.2207 17.0311 24.579 16.9471" stroke="#85340A" stroke-width="0.132"></path><path d="M22.9963 17.7418L27.7012 17.5595C27.7012 17.5595 27.7909 17.5593 27.7929 17.4995C27.7886 17.437 27.6989 17.4372 27.6989 17.4372L22.9932 17.2555M24.5174 17.9491C25.1061 18.2267 25.5907 17.9909 26.1077 18.2612C26.6285 18.5407 27.0495 18.3691 27.2916 18.3799C27.5284 18.4036 27.5914 18.5968 27.647 18.552C27.7053 18.5007 27.5924 18.3017 27.2769 18.2146C26.9652 18.1366 26.7835 18.3255 26.148 17.9978C25.5126 17.6702 25.2276 17.9293 24.6664 17.6025" fill="#F6B40E"></path><path d="M22.9963 17.7418L27.7012 17.5595C27.7012 17.5595 27.7909 17.5593 27.7929 17.4995C27.7886 17.437 27.6989 17.4372 27.6989 17.4372L22.9932 17.2555M24.5174 17.9491C25.1061 18.2267 25.5907 17.9909 26.1077 18.2612C26.6285 18.5407 27.0495 18.3691 27.2916 18.3799C27.5284 18.4036 27.5914 18.5968 27.647 18.552C27.7053 18.5007 27.5924 18.3017 27.2769 18.2146C26.9652 18.1366 26.7835 18.3255 26.148 17.9978C25.5126 17.6702 25.2276 17.9293 24.6664 17.6025" stroke="#85340A" stroke-width="0.132"></path><path d="M22.9052 17.7225L27.3207 19.3807C27.3207 19.3807 27.4036 19.4153 27.428 19.3609C27.4476 19.3015 27.3646 19.2668 27.3646 19.2668L23.0857 17.2721M24.2323 18.5046C24.6714 18.9896 25.2081 18.9599 25.5838 19.4104C25.9594 19.8707 26.4132 19.8756 26.6328 19.9796C26.8426 20.0934 26.8279 20.2964 26.8962 20.2766C26.9694 20.2518 26.9401 20.0241 26.6815 19.8212C26.423 19.6282 26.1839 19.7321 25.7204 19.1827C25.2569 18.6333 24.8958 18.762 24.5006 18.2422" fill="#F6B40E"></path><path d="M22.9052 17.7225L27.3207 19.3807C27.3207 19.3807 27.4036 19.4153 27.428 19.3609C27.4476 19.3015 27.3646 19.2668 27.3646 19.2668L23.0857 17.2721M24.2323 18.5046C24.6714 18.9896 25.2081 18.9599 25.5838 19.4104C25.9594 19.8707 26.4132 19.8756 26.6328 19.9796C26.8426 20.0934 26.8279 20.2964 26.8962 20.2766C26.9694 20.2518 26.9401 20.0241 26.6815 19.8212C26.423 19.6282 26.1839 19.7321 25.7204 19.1827C25.2569 18.6333 24.8958 18.762 24.5006 18.2422" stroke="#85340A" stroke-width="0.132"></path><path d="M22.8291 17.6697L26.283 20.9159C26.283 20.9159 26.3466 20.9801 26.3897 20.9393C26.4301 20.892 26.3665 20.8278 26.3665 20.8278L23.1658 17.3237M23.7602 18.9075C23.9829 19.5261 24.4899 19.707 24.6671 20.269C24.8406 20.8402 25.2579 21.0209 25.4215 21.2022C25.5724 21.3888 25.4823 21.5706 25.5529 21.5788C25.6299 21.5844 25.6887 21.3627 25.5264 21.0748C25.3603 20.796 25.1002 20.7992 24.8792 20.1117C24.6582 19.4242 24.2761 19.4029 24.1071 18.7693" fill="#F6B40E"></path><path d="M22.8291 17.6697L26.283 20.9159C26.283 20.9159 26.3466 20.9801 26.3897 20.9393C26.4301 20.892 26.3665 20.8278 26.3665 20.8278L23.1658 17.3237M23.7602 18.9075C23.9829 19.5261 24.4899 19.707 24.6671 20.269C24.8406 20.8402 25.2579 21.0209 25.4215 21.2022C25.5724 21.3888 25.4823 21.5706 25.5529 21.5788C25.6299 21.5844 25.6887 21.3627 25.5264 21.0748C25.3603 20.796 25.1002 20.7992 24.8792 20.1117C24.6582 19.4242 24.2761 19.4029 24.1071 18.7693" stroke="#85340A" stroke-width="0.132"></path><path d="M24.682 17.1988C25.303 17.1638 25.579 16.8068 26.1517 16.8768C25.7032 16.7228 25.3513 17.0938 24.6889 17.0728M23.0467 17.6118L25.9861 16.2468L22.957 17.3878" fill="#85340A"></path><path d="M24.6675 17.8755C25.2544 18.0843 25.644 17.8616 26.1467 18.1486C25.7905 17.8322 25.3254 18.0384 24.7214 17.7618M23.0008 17.6222L26.2314 17.5023L23.0025 17.3805" fill="#85340A"></path><path d="M24.3982 18.4947C24.8618 18.9154 25.3057 18.861 25.6619 19.3213C25.4521 18.8907 24.9447 18.9006 24.4909 18.4106M22.9541 17.6137L25.9839 18.7571L23.0468 17.3909" fill="#85340A"></path><path d="M23.9171 18.9626C24.1866 19.5313 24.6174 19.6534 24.7728 20.2169C24.7414 19.7376 24.2689 19.5498 24.0345 18.9209M22.9152 17.588L25.2831 19.8206L23.0849 17.4182" fill="#85340A"></path><path d="M23.0011 19.447C24.061 19.447 24.9202 18.5753 24.9202 17.5001C24.9202 16.4249 24.061 15.5532 23.0011 15.5532C21.9412 15.5532 21.082 16.4249 21.082 17.5001C21.082 18.5753 21.9412 19.447 23.0011 19.447Z" fill="#F6B40E" stroke="#85340A" stroke-width="0.175"></path><path d="M23.6477 17.0845C23.5255 17.0845 23.3961 17.1428 23.3242 17.2595C23.468 17.398 23.7986 17.4053 24.0214 17.2449C23.9743 17.1942 23.9175 17.1538 23.8545 17.1262C23.7914 17.0986 23.7235 17.0844 23.6548 17.0845H23.6477ZM23.6477 17.1136C23.777 17.1136 23.8992 17.172 23.9136 17.2303C23.7698 17.398 23.5327 17.3761 23.3817 17.2595C23.4536 17.1574 23.5542 17.1136 23.6548 17.1136H23.6477Z" fill="#843511"></path><path d="M23.6742 16.9897C23.4801 16.9897 23.437 17.0335 23.3508 17.1137C23.2645 17.1866 23.2142 17.172 23.207 17.1866C23.1854 17.2012 23.207 17.245 23.2286 17.2304C23.2645 17.2158 23.322 17.1866 23.4083 17.1137C23.4945 17.0408 23.5879 17.0408 23.6742 17.0408C23.9401 17.0408 24.0839 17.2595 24.1126 17.245C24.1486 17.2304 23.9689 16.9897 23.6742 16.9897Z" fill="#85340A"></path><path d="M24.207 17.0843C23.8692 16.7854 23.438 16.7343 23.2008 16.9604C23.1462 17.0333 23.1092 17.1182 23.093 17.2083C23.0642 17.3833 23.1145 17.5656 23.2439 17.7551L23.1864 17.7843C23.0714 17.5583 23.0283 17.3249 23.0714 17.0989L23.1145 16.9312C23.438 16.6614 23.8836 16.6395 24.207 17.077V17.0843Z" fill="#85340A"></path><path d="M23.647 17.3616C23.7184 17.3616 23.7763 17.3029 23.7763 17.2304C23.7763 17.1579 23.7184 17.0991 23.647 17.0991C23.5755 17.0991 23.5176 17.1579 23.5176 17.2304C23.5176 17.3029 23.5755 17.3616 23.647 17.3616Z" fill="#85340A"></path><path d="M24.0273 17.3177C23.7758 17.5146 23.5242 17.5 23.3805 17.4125C23.2367 17.3177 23.2367 17.2886 23.2655 17.2886C23.2942 17.2886 23.323 17.3177 23.438 17.3834C23.5602 17.4417 23.7327 17.4417 24.0273 17.3177Z" fill="#85340A"></path><path d="M22.713 17.7695C22.693 17.7743 22.6744 17.7839 22.6588 17.7974C22.6432 17.8108 22.631 17.8279 22.6231 17.8472C22.6153 17.8664 22.6121 17.8873 22.6138 17.908C22.6154 17.9288 22.622 17.9488 22.6328 17.9665C22.6436 17.9842 22.6584 17.999 22.676 18.0097C22.6936 18.0205 22.7134 18.0268 22.7339 18.0282C22.7544 18.0296 22.7749 18.0261 22.7937 18.0179C22.8126 18.0097 22.8293 17.997 22.8423 17.981C22.8897 18.0108 22.9447 18.026 23.0005 18.0247H23.0148C23.058 18.0247 23.1298 18.0174 23.1802 17.981C23.2017 18.0174 23.2448 18.032 23.288 18.032C23.3223 18.0349 23.3563 18.0239 23.3826 18.0013C23.4089 17.9788 23.4253 17.9465 23.4281 17.9117C23.431 17.8769 23.4201 17.8424 23.3979 17.8157C23.3756 17.789 23.3438 17.7724 23.3095 17.7695C23.3455 17.7841 23.367 17.8133 23.367 17.857C23.367 17.8802 23.3579 17.9025 23.3418 17.9189C23.3256 17.9353 23.3037 17.9445 23.2808 17.9445C23.2579 17.9445 23.236 17.9353 23.2198 17.9189C23.2036 17.9025 23.1945 17.8802 23.1945 17.857C23.1775 17.893 23.1511 17.9236 23.1181 17.9455C23.0852 17.9673 23.047 17.9796 23.0077 17.981C22.9696 17.9783 22.9329 17.9654 22.9013 17.9437C22.8697 17.9219 22.8444 17.892 22.828 17.857C22.828 17.9081 22.7848 17.9445 22.7345 17.9445C22.6914 17.9445 22.6483 17.9008 22.6483 17.857C22.6483 17.8133 22.6698 17.7841 22.7058 17.7695H22.713ZM22.8567 18.1633C22.7058 18.1633 22.6411 18.3091 22.5117 18.3893C22.5836 18.3602 22.6411 18.3018 22.7489 18.2435C22.8495 18.1852 22.9358 18.2581 23.0005 18.2581C23.058 18.2581 23.1442 18.1852 23.252 18.2435C23.3527 18.3018 23.4173 18.3602 23.4892 18.3893C23.3527 18.3018 23.2952 18.1706 23.1442 18.1706C23.1155 18.1706 23.058 18.1852 23.0005 18.2143L22.8567 18.1633Z" fill="#85340A"></path><path d="M22.7991 18.3458C22.7416 18.3458 22.6697 18.3604 22.5547 18.3895C22.8206 18.3312 22.8781 18.426 23.0003 18.426C23.1153 18.426 23.18 18.3312 23.4388 18.3895C23.1513 18.302 23.0866 18.3604 23.0003 18.3604C22.9428 18.3604 22.8997 18.3385 22.7991 18.3458Z" fill="#85340A"></path><path d="M22.5692 18.3897H22.5117C22.8208 18.4261 22.677 18.6084 23.0005 18.6084C23.3239 18.6084 23.1802 18.4261 23.4892 18.3897C23.1658 18.3605 23.2664 18.5574 23.0005 18.5574C22.7489 18.5574 22.828 18.3897 22.5692 18.3897Z" fill="#85340A"></path><path d="M23.2663 18.8782C23.2663 18.8066 23.2382 18.738 23.1884 18.6874C23.1385 18.6368 23.0708 18.6084 23.0003 18.6084C22.9298 18.6084 22.8621 18.6368 22.8123 18.6874C22.7624 18.738 22.7344 18.8066 22.7344 18.8782C22.7484 18.8173 22.7823 18.7631 22.8306 18.7242C22.8789 18.6854 22.9387 18.6643 23.0003 18.6643C23.0619 18.6643 23.1217 18.6854 23.17 18.7242C23.2183 18.7631 23.2522 18.8173 23.2663 18.8782Z" fill="#85340A"></path><path d="M21.8066 17.0843C22.1445 16.7854 22.5757 16.7343 22.8129 16.9604C22.8675 17.0333 22.9044 17.1182 22.9207 17.2083C22.9495 17.3833 22.8991 17.5656 22.7698 17.7551L22.8273 17.7843C22.9423 17.5583 22.9854 17.3249 22.9423 17.0989L22.8991 16.9312C22.5757 16.6614 22.1301 16.6395 21.8066 17.077V17.0843Z" fill="#85340A"></path><path d="M22.3375 16.9897C22.5316 16.9897 22.5747 17.0335 22.661 17.1137C22.7472 17.1866 22.7975 17.172 22.8047 17.1866C22.8263 17.2012 22.8047 17.245 22.7831 17.2304C22.7472 17.2158 22.6897 17.1866 22.6035 17.1137C22.5172 17.0408 22.4238 17.0408 22.3375 17.0408C22.0716 17.0408 21.9278 17.2595 21.8991 17.245C21.8631 17.2304 22.0428 16.9897 22.3375 16.9897Z" fill="#85340A"></path><path d="M22.3234 17.0845C22.2012 17.0845 22.0719 17.1428 22 17.2595C22.1437 17.398 22.4744 17.4053 22.6972 17.2449C22.6501 17.1942 22.5933 17.1538 22.5303 17.1262C22.4672 17.0986 22.3993 17.0844 22.3306 17.0845H22.3234ZM22.3234 17.1136C22.4528 17.1136 22.575 17.172 22.5894 17.2303C22.4456 17.398 22.2084 17.3761 22.0575 17.2595C22.1294 17.1574 22.23 17.1136 22.3306 17.1136H22.3234Z" fill="#843511"></path><path d="M22.3462 17.3616C22.4176 17.3616 22.4755 17.3029 22.4755 17.2304C22.4755 17.1579 22.4176 17.0991 22.3462 17.0991C22.2747 17.0991 22.2168 17.1579 22.2168 17.2304C22.2168 17.3029 22.2747 17.3616 22.3462 17.3616Z" fill="#85340A"></path><path d="M21.9863 17.3177C22.2379 17.5146 22.4895 17.5 22.6332 17.4125C22.777 17.3177 22.777 17.2886 22.7482 17.2886C22.7195 17.2886 22.6907 17.3177 22.5757 17.3834C22.4535 17.4417 22.281 17.4417 21.9863 17.3177Z" fill="#85340A"></path></svg>