<svg xmlns="http://www.w3.org/2000/svg" width="47" height="35" viewBox="0 0 47 35" fill="none"><path fill-rule="evenodd" clip-rule="evenodd" d="M0 0H47V35H0V0Z" fill="#229E45"></path><path fill-rule="evenodd" clip-rule="evenodd" d="M23.6029 31.7918L45.7443 17.522L23.4707 3.2085L1.25586 17.5512L23.6029 31.7918Z" fill="#F8E509"></path><path fill-rule="evenodd" clip-rule="evenodd" d="M33.2529 17.5C33.2529 22.626 29.0596 26.7823 23.8823 26.7823C22.0322 26.7794 20.2244 26.2319 18.6876 25.2091C17.1508 24.1863 15.9539 22.734 15.2483 21.0359C14.5426 19.3378 14.3599 17.47 14.7231 15.6688C15.0864 13.8675 15.9793 12.2137 17.2891 10.9163C18.5989 9.61884 20.2666 8.73611 22.0816 8.37968C23.8966 8.02324 25.7772 8.20909 27.4858 8.91375C29.1944 9.6184 30.6542 10.8102 31.6807 12.3385C32.7072 13.8668 33.2543 15.663 33.2529 17.5Z" fill="#2B49A3"></path><path fill-rule="evenodd" clip-rule="evenodd" d="M20.8044 23.0635L20.5106 22.8958L20.2169 23.0416L20.283 22.7135L20.048 22.4656L20.3784 22.4291L20.54 22.1375L20.6795 22.4437L21.0027 22.5021L20.7603 22.7208M27.0759 24.6385L26.7895 24.4708L26.4958 24.6166L26.5545 24.2885L26.3269 24.0479L26.6573 24.0114L26.8116 23.7125L26.9584 24.0187L27.2816 24.0771L27.0319 24.3031M24.3734 22.1156L24.1237 21.9698L23.8667 22.101L23.9255 21.8166L23.7198 21.6052L24.0136 21.576L24.1458 21.3135L24.2633 21.5833L24.5497 21.6343L24.3294 21.8312M30.7184 21.2114L30.4687 21.0656L30.2117 21.1968L30.2705 20.9125L30.0722 20.7083L30.3586 20.6791L30.4908 20.4239L30.6083 20.6864L30.8873 20.7375L30.6744 20.9271M24.2633 19.3229L23.9695 19.1625L23.6758 19.3083L23.7345 18.9729L23.5069 18.7323L23.8373 18.6958L23.9916 18.3968L24.1384 18.7031L24.4616 18.7614L24.2119 18.9948M16.5303 16.4427L16.2366 16.2823L15.9428 16.4281L16.0163 16.0927L15.7739 15.8521L16.1117 15.8156L16.2586 15.5166L16.4055 15.8229L16.7286 15.8812L16.4863 16.1073M17.463 20.2781L17.1692 20.1104L16.8755 20.2562L16.9416 19.9281L16.7066 19.6875L17.037 19.6437L17.1913 19.3521L17.3381 19.6583L17.6613 19.7166L17.4189 19.9427M27.1127 15.0354L26.8483 14.8896L26.5839 15.0208L26.6427 14.7291L26.437 14.5104L26.7308 14.4739L26.8703 14.2114L26.9952 14.4885L27.2889 14.5396L27.0686 14.7364M26.5766 17.5291L26.3783 17.4125L26.1653 17.5146L26.2094 17.2812L26.0478 17.1135L26.2828 17.0843L26.393 16.8802L26.4884 17.0989L26.7088 17.1354L26.5472 17.2958M16.1044 20.9708L15.9061 20.8614L15.7078 20.9562L15.7519 20.7375L15.5977 20.5771L15.818 20.5479L15.9208 20.351L16.0163 20.5552L16.2366 20.5989L16.0677 20.7448M30.7698 21.8604L30.6083 21.7802L30.4467 21.8531L30.4834 21.6854L30.3586 21.5687L30.5348 21.5468L30.623 21.401L30.6964 21.5468L30.88 21.5833L30.7405 21.6927" fill="#FFFFEF"></path><path fill-rule="evenodd" clip-rule="evenodd" d="M16.1044 20.9709L15.9061 20.8615L15.7078 20.9563L15.7519 20.7375L15.5977 20.5771L15.818 20.5479L15.9208 20.3511L16.0163 20.5552L16.2366 20.599L16.0677 20.7448" fill="#FFFFEF"></path><path fill-rule="evenodd" clip-rule="evenodd" d="M16.1044 20.9708L15.9061 20.8614L15.7078 20.9562L15.7519 20.7375L15.5977 20.5771L15.818 20.5479L15.9208 20.351L16.0163 20.5552L16.2366 20.5989L16.0677 20.7448M19.1741 20.9635L18.9831 20.8614L18.7848 20.9562L18.8289 20.7375L18.6747 20.5771L18.895 20.5479L18.9978 20.351L19.0933 20.5552L19.3136 20.5916L19.1447 20.7448M18.7922 21.9843L18.6013 21.875L18.403 21.9771L18.447 21.7583L18.2928 21.5906L18.5131 21.5614L18.6159 21.3646L18.7114 21.5687L18.9317 21.6125L18.7628 21.7583M25.1813 20.1396L24.9903 20.0229L24.7847 20.125L24.8288 19.9062L24.6819 19.7385L24.9022 19.7166L25.005 19.5198L25.0931 19.7239L25.3134 19.7604L25.1519 19.9135M23.3086 20.1323L23.1103 20.0229L22.912 20.125L22.9561 19.9062L22.8092 19.7385L23.0295 19.7166L23.1323 19.5125L23.2205 19.7239L23.4408 19.7604L23.2792 19.9135M18.2267 19.4906L18.1019 19.4177L17.977 19.476L18.0064 19.3375L17.9109 19.2354L18.0505 19.2208L18.1092 19.0968L18.168 19.2281L18.3075 19.25L18.2047 19.3448M30.5275 22.6552L30.3366 22.5458L30.1383 22.6479L30.1823 22.4291L30.0281 22.2614L30.2484 22.2323L30.3513 22.0354L30.4467 22.2396L30.667 22.2833L30.4981 22.4291M28.9706 22.8666L28.8091 22.7646L28.6402 22.8521L28.6769 22.6625L28.552 22.5312L28.7356 22.5093L28.8238 22.3416L28.8972 22.5166L29.0808 22.5458L28.9413 22.6771M29.705 22.8448L29.5581 22.7573L29.4039 22.8302L29.4333 22.6625L29.3158 22.5385L29.4847 22.5166L29.5655 22.3708L29.6389 22.5166L29.8078 22.5531L29.683 22.6698M31.82 21.0073L31.6731 20.9343L31.5263 21.0073L31.563 20.8396L31.4455 20.7156L31.6144 20.6937L31.6878 20.5479L31.7613 20.701L31.9155 20.7302L31.798 20.8468M28.9486 23.8948L28.765 23.7927L28.5667 23.8802L28.6108 23.676L28.4639 23.5302L28.6842 23.5083L28.7797 23.326L28.8678 23.5156L29.0881 23.5521L28.9192 23.6906M28.9633 24.726L28.787 24.6239L28.6108 24.7187L28.6548 24.5146L28.5153 24.3687L28.7136 24.3396L28.8017 24.1573L28.8825 24.3468L29.0808 24.3833L28.9339 24.5291M27.5386 22.8448L27.3991 22.7573L27.2522 22.8302L27.2816 22.6698L27.1714 22.5458L27.333 22.5312L27.4064 22.3854L27.4798 22.5312L27.6414 22.5604L27.5239 22.6771M26.2167 22.8448L26.0698 22.7573L25.923 22.8302L25.9597 22.6698L25.8422 22.5458L26.0111 22.5312L26.0845 22.3854L26.158 22.5312L26.3122 22.5604L26.1947 22.6771M23.9622 20.8833L23.8153 20.8031L23.6684 20.876L23.7052 20.7083L23.5877 20.5916L23.7492 20.5698L23.8227 20.4239L23.8961 20.5698L24.0577 20.6062L23.9402 20.7156M24.2119 24.8718L24.0944 24.8062L23.9622 24.8718L23.9916 24.726L23.8961 24.6239L24.0356 24.6093L24.1017 24.4854L24.1605 24.6166L24.3 24.6385L24.1972 24.7333M20.8044 18.4187L20.5106 18.251L20.2169 18.3968L20.283 18.0687L20.048 17.8281L20.3784 17.7843L20.54 17.4927L20.6795 17.7989L21.0027 17.8573L20.7603 18.0833" fill="#FFFFEF"></path><path fill-rule="evenodd" clip-rule="evenodd" d="M32.636 20.8396C32.8179 20.3709 32.9604 19.888 33.062 19.3959C28.0829 15.0573 22.5384 12.8334 15.5324 13.2927C15.2783 13.7809 15.0694 14.291 14.9082 14.8167C23.2066 14.0292 29.302 17.675 32.636 20.8396Z" fill="white"></path><path d="M30.4025 18.4042L30.5714 18.499C30.5462 18.5485 30.5384 18.605 30.5494 18.6594C30.5666 18.7121 30.6033 18.7564 30.6522 18.7833C30.7036 18.8198 30.755 18.8417 30.7991 18.8344C30.8431 18.8344 30.8725 18.8125 30.8945 18.7833C30.9073 18.764 30.9126 18.7406 30.9092 18.7177C30.9032 18.6908 30.8906 18.6657 30.8725 18.6448C30.8578 18.6229 30.8211 18.5719 30.7623 18.5135C30.702 18.4517 30.6567 18.3768 30.6302 18.2948C30.6118 18.2327 30.6166 18.1662 30.6435 18.1073C30.6705 18.0484 30.7179 18.0011 30.777 17.974C30.8304 17.9518 30.8895 17.9467 30.9459 17.9594C31.015 17.9752 31.08 18.005 31.1369 18.0469C31.2397 18.1198 31.3058 18.1927 31.3278 18.2802C31.338 18.3211 31.3393 18.3637 31.3317 18.4052C31.3241 18.4467 31.3078 18.4861 31.2837 18.5208L31.1075 18.4115C31.1295 18.3677 31.1369 18.324 31.1222 18.2875C31.1148 18.251 31.0855 18.2146 31.0341 18.1854C30.9963 18.1553 30.9502 18.1375 30.9019 18.1344C30.8886 18.1339 30.8754 18.1371 30.8637 18.1435C30.8521 18.1499 30.8424 18.1594 30.8358 18.1708C30.8211 18.1927 30.8211 18.2146 30.8284 18.2437C30.8358 18.2729 30.8725 18.3312 30.9459 18.4042C31.0194 18.4771 31.0634 18.5427 31.0928 18.5865C31.119 18.6342 31.1309 18.6885 31.127 18.7428C31.1231 18.7971 31.1036 18.8491 31.0708 18.8927C31.0364 18.9423 30.9878 18.9804 30.9313 19.0021C30.8762 19.0273 30.8146 19.0349 30.755 19.024C30.6889 19.0094 30.6228 18.9802 30.5494 18.9292C30.4392 18.8563 30.3731 18.776 30.3511 18.6885C30.3272 18.5893 30.343 18.4848 30.3952 18.3969L30.4025 18.4042ZM29.5506 17.85L29.7342 17.9448C29.7115 17.9952 29.7063 18.0516 29.7195 18.1052C29.7383 18.1553 29.7749 18.1968 29.8223 18.2219C29.8811 18.2583 29.9252 18.2729 29.9692 18.2656C30.0133 18.2656 30.0427 18.2437 30.0647 18.2073C30.0758 18.1899 30.081 18.1695 30.0794 18.149C30.0794 18.1271 30.0647 18.0979 30.0427 18.076C30.005 18.031 29.9658 17.9872 29.9252 17.9448C29.8444 17.8646 29.793 17.799 29.7783 17.7406C29.7663 17.7031 29.7627 17.6634 29.7677 17.6244C29.7728 17.5853 29.7864 17.5478 29.8077 17.5146C29.8356 17.4696 29.8765 17.434 29.9252 17.4125C29.9756 17.3894 30.0319 17.3818 30.0867 17.3906C30.1546 17.402 30.2196 17.4268 30.2777 17.4635C30.3878 17.5365 30.4539 17.6094 30.4759 17.6896C30.4893 17.7306 30.4936 17.7739 30.4886 17.8167C30.4835 17.8595 30.4692 17.9007 30.4466 17.9375L30.263 17.8354C30.285 17.7844 30.2923 17.7479 30.2777 17.7115C30.263 17.675 30.2336 17.6385 30.1822 17.6094C30.1416 17.5804 30.0927 17.5651 30.0427 17.5656C30.0306 17.5664 30.0189 17.5702 30.0087 17.5765C29.9984 17.5829 29.9899 17.5917 29.9839 17.6021C29.9692 17.624 29.9692 17.6458 29.9766 17.675C29.9839 17.7042 30.028 17.7625 30.1014 17.8354C30.1748 17.9083 30.2262 17.9667 30.2483 18.0104C30.2777 18.0561 30.2933 18.1093 30.2933 18.1635C30.2933 18.2178 30.2777 18.2709 30.2483 18.3167C30.2166 18.3675 30.1707 18.4081 30.1161 18.4333C30.061 18.4585 29.9995 18.4662 29.9398 18.4552C29.8643 18.4425 29.7919 18.4153 29.7269 18.375C29.6319 18.3248 29.5588 18.2418 29.5212 18.1417C29.4929 18.0443 29.5034 17.9398 29.5506 17.85ZM28.5078 17.5729L29.0439 16.6979L29.6902 17.099L29.602 17.2448L29.132 16.9531L29.0145 17.15L29.4552 17.4198L29.3597 17.5656L28.9191 17.2958L28.7722 17.5365L29.2642 17.8281L29.1761 17.974L28.5078 17.5729ZM26.9877 16.3333L27.0684 16.1875L27.465 16.3844L27.2814 16.749C27.2227 16.7635 27.1492 16.7708 27.0611 16.7635C26.9765 16.7543 26.8943 16.7296 26.8188 16.6906C26.7299 16.6476 26.6539 16.5823 26.5984 16.501C26.5479 16.4256 26.5223 16.3364 26.525 16.2458C26.5287 16.1516 26.5538 16.0593 26.5984 15.976C26.6426 15.8884 26.7082 15.8131 26.7894 15.7573C26.867 15.704 26.9594 15.676 27.0537 15.6771C27.1272 15.6771 27.2006 15.699 27.2888 15.75C27.4062 15.801 27.4797 15.874 27.5164 15.9542C27.5546 16.0338 27.5624 16.1245 27.5384 16.2094L27.3402 16.151C27.3523 16.1022 27.3471 16.0507 27.3255 16.0052C27.3034 15.9615 27.2667 15.9323 27.208 15.9031C27.1737 15.8837 27.1357 15.8717 27.0965 15.868C27.0573 15.8642 27.0177 15.8687 26.9803 15.8813C26.9069 15.9031 26.8408 15.9687 26.7894 16.0708C26.738 16.1729 26.7159 16.2677 26.738 16.3479C26.7481 16.386 26.7665 16.4213 26.7919 16.4516C26.8173 16.4818 26.849 16.5061 26.8848 16.5229C26.9216 16.5448 26.9656 16.5594 27.0097 16.5594C27.0535 16.566 27.0981 16.566 27.1419 16.5594L27.2006 16.4427L26.9877 16.3333ZM20.3636 14.7073L20.5105 13.6865L20.8189 13.7375L20.8997 14.4521L21.1861 13.7958L21.4945 13.8396L21.3477 14.8458L21.1494 14.8167L21.2742 14.0219L20.9511 14.7875L20.7528 14.7583L20.672 13.9344L20.5545 14.7365L20.3636 14.7073ZM19.3281 14.5833L19.4236 13.5625L20.18 13.6354L20.1653 13.8104L19.6145 13.7594L19.5925 13.9781L20.1066 14.0292L20.0845 14.2042L19.5705 14.1531L19.5484 14.4302L20.1212 14.4813L20.1066 14.6562L19.3281 14.5833Z" fill="#309E3A"></path><path d="M15.9002 13.9488C15.9002 13.8395 15.9222 13.7592 15.9516 13.6863C15.9773 13.6345 16.0121 13.5876 16.0544 13.5478C16.0921 13.5101 16.137 13.4803 16.1866 13.4603C16.26 13.4384 16.3335 13.4238 16.4069 13.4238C16.5611 13.4238 16.6786 13.4822 16.7741 13.5697C16.8195 13.6254 16.8533 13.6896 16.8735 13.7584C16.8937 13.8273 16.8998 13.8995 16.8916 13.9707C16.8916 14.1311 16.8402 14.2624 16.7447 14.3572C16.6957 14.4022 16.6376 14.4365 16.5744 14.4578C16.5111 14.4792 16.4441 14.4871 16.3775 14.4811C16.3119 14.4818 16.2468 14.4692 16.1862 14.4441C16.1256 14.4191 16.0708 14.382 16.025 14.3353C15.9336 14.2279 15.8888 14.089 15.9002 13.9488Z" fill="#309E3A"></path><path d="M16.1133 13.9488C16.1133 14.0581 16.1353 14.1456 16.1867 14.2113C16.2381 14.2696 16.3042 14.3061 16.3923 14.3061C16.4305 14.3087 16.4687 14.3029 16.5043 14.289C16.5398 14.2751 16.5719 14.2536 16.598 14.2259C16.6494 14.1675 16.6714 14.08 16.6788 13.9561C16.6788 13.8394 16.6641 13.7519 16.6053 13.6936C16.5814 13.6642 16.5512 13.6404 16.5169 13.624C16.4826 13.6076 16.4451 13.599 16.407 13.5988C16.3684 13.5975 16.33 13.6047 16.2944 13.6199C16.2589 13.635 16.2272 13.6576 16.2014 13.6863C16.1427 13.7446 16.1206 13.8321 16.1133 13.9488Z" fill="#F7FFFF"></path><path d="M17.1113 14.474L17.126 13.4531H17.5666C17.6768 13.4531 17.7502 13.4677 17.8016 13.4896C17.853 13.5042 17.8898 13.5406 17.9191 13.5844C17.9485 13.6281 17.9632 13.6865 17.9632 13.7521C17.9638 13.8222 17.9375 13.89 17.8898 13.9417C17.8355 13.9922 17.7656 14.023 17.6915 14.0292L17.8016 14.1167C17.831 14.1458 17.8677 14.2042 17.9118 14.2844L18.0366 14.4885H17.787L17.6401 14.2552L17.5373 14.1094C17.5195 14.0893 17.4967 14.0742 17.4712 14.0656C17.4378 14.056 17.4032 14.051 17.3684 14.051H17.3243V14.474H17.1113Z" fill="#309E3A"></path><path d="M17.332 13.8904H17.4789C17.5817 13.8904 17.6478 13.8904 17.6698 13.8758C17.6919 13.8758 17.7139 13.854 17.7286 13.8394C17.7433 13.8248 17.7506 13.7883 17.7506 13.7665C17.7506 13.7227 17.7433 13.6936 17.7213 13.679C17.7066 13.6571 17.6772 13.6425 17.6478 13.6352H17.5009L17.332 13.6279V13.8904Z" fill="white"></path><path d="M18.2858 13.5044L18.6677 13.5263C18.7484 13.5263 18.8145 13.5336 18.8586 13.5481C18.9158 13.5687 18.9664 13.6039 19.0055 13.6502C19.0478 13.7012 19.0779 13.761 19.0936 13.8252C19.1156 13.8909 19.123 13.9711 19.1156 14.0659C19.1156 14.1403 19.1032 14.2142 19.0789 14.2846C19.0495 14.3575 19.0055 14.4159 18.9541 14.4596C18.9113 14.4946 18.8611 14.5195 18.8072 14.5325C18.7631 14.5471 18.697 14.5471 18.6236 14.5471L18.2344 14.5252L18.2858 13.5044Z" fill="#309E3A"></path><path d="M18.484 13.6865L18.4473 14.3646H18.7263C18.763 14.3646 18.7924 14.3501 18.8145 14.3282C18.8365 14.3063 18.8585 14.2771 18.8732 14.2334C18.8879 14.1896 18.9026 14.124 18.9026 14.0438L18.8952 13.8615C18.8847 13.8231 18.8645 13.7879 18.8365 13.7594C18.8121 13.7351 18.7817 13.7175 18.7484 13.7084C18.6928 13.6961 18.6363 13.6888 18.5795 13.6865H18.484Z" fill="white"></path><path d="M23.3242 15.3271L23.5666 14.3354L23.8897 14.4084L24.1247 14.4813C24.1761 14.5104 24.2202 14.5542 24.2422 14.6198C24.2716 14.6782 24.2716 14.7438 24.2569 14.824C24.2422 14.8823 24.2202 14.9334 24.1834 14.9698C24.1565 15.0018 24.1228 15.0276 24.0847 15.0452C24.0467 15.0629 24.0051 15.072 23.9631 15.0719C23.9117 15.0719 23.8383 15.0573 23.7428 15.0354L23.618 14.999L23.5298 15.3782L23.3242 15.3271Z" fill="#309E3A"></path><path d="M23.7209 14.5542L23.6621 14.8313L23.7723 14.8604C23.8457 14.875 23.9045 14.8896 23.9338 14.8823C23.9624 14.8784 23.989 14.8658 24.0101 14.8462C24.0311 14.8266 24.0455 14.801 24.0513 14.7729C24.0513 14.7365 24.0513 14.7073 24.0366 14.6782C24.0205 14.6485 23.9946 14.6253 23.9632 14.6125L23.8237 14.5761L23.7282 14.5542H23.7209Z" fill="white"></path><path d="M24.2793 15.6114L24.6245 14.6489L25.0284 14.7948C25.1385 14.8312 25.2046 14.8677 25.2487 14.8968C25.2854 14.9333 25.3148 14.9698 25.3221 15.0281C25.3295 15.0864 25.3368 15.1375 25.3221 15.1958C25.2927 15.2687 25.2487 15.3198 25.1899 15.3562C25.1312 15.3854 25.0577 15.3927 24.9696 15.3781C24.999 15.4146 25.0284 15.451 25.043 15.4948L25.1018 15.6916L25.1459 15.9177L24.9182 15.8375L24.8448 15.575C24.8314 15.5156 24.8142 15.4571 24.7934 15.4C24.7836 15.3773 24.7685 15.3573 24.7493 15.3416C24.7346 15.3198 24.7052 15.3052 24.6538 15.2906L24.6171 15.276L24.4702 15.6843L24.2793 15.6114Z" fill="#309E3A"></path><path d="M24.6753 15.1229L24.8148 15.174C24.9103 15.2104 24.9691 15.225 24.9984 15.225C25.0205 15.225 25.0425 15.225 25.0645 15.2032C25.0866 15.1886 25.1012 15.1667 25.1086 15.1375C25.1233 15.1084 25.1233 15.0792 25.1086 15.05C25.0977 15.0218 25.0768 14.9984 25.0498 14.9844L24.903 14.9334L24.7561 14.8823L24.668 15.1229H24.6753Z" fill="white"></path><path d="M25.4832 15.5749C25.5085 15.4895 25.551 15.4101 25.6081 15.3416C25.6452 15.2976 25.69 15.2605 25.7403 15.2322C25.7858 15.2067 25.8355 15.1894 25.8872 15.1812C25.9606 15.1812 26.034 15.1812 26.1148 15.2103C26.1805 15.2264 26.2419 15.2562 26.2951 15.2977C26.3482 15.3392 26.3919 15.3914 26.4232 15.4509C26.482 15.5676 26.482 15.7062 26.4379 15.8666C26.4016 16.0044 26.3118 16.1223 26.1882 16.1947C26.0781 16.2603 25.9459 16.2676 25.8064 16.2239C25.7409 16.2073 25.6797 16.1774 25.6265 16.1359C25.5734 16.0945 25.5296 16.0425 25.4979 15.9832C25.4685 15.9195 25.4521 15.8506 25.4496 15.7805C25.447 15.7104 25.4585 15.6406 25.4832 15.5749Z" fill="#309E3A"></path><path d="M25.6889 15.6333C25.6595 15.7427 25.6522 15.8375 25.6889 15.9104C25.7256 15.9833 25.7771 16.0271 25.8578 16.0563C25.9313 16.0781 26.0047 16.0708 26.0781 16.0271C26.1516 15.9906 26.1956 15.9104 26.2324 15.7938C26.2691 15.6844 26.2691 15.5969 26.2324 15.524C26.2179 15.4894 26.1959 15.4584 26.168 15.4332C26.14 15.408 26.1069 15.3892 26.0708 15.3781C26.0347 15.3658 25.9963 15.3613 25.9582 15.3651C25.9202 15.3688 25.8834 15.3808 25.8505 15.4C25.777 15.4438 25.7256 15.5167 25.6889 15.6333Z" fill="white"></path><path d="M27.4883 16.9969L27.9583 16.0928L28.3475 16.2896C28.4209 16.3246 28.4879 16.3714 28.5458 16.4282C28.5825 16.4646 28.6045 16.5084 28.6045 16.5667C28.6045 16.6251 28.6045 16.6761 28.5752 16.7271C28.5469 16.7927 28.4943 16.8449 28.4283 16.873C28.3548 16.8876 28.2814 16.8876 28.2006 16.8584C28.23 16.9021 28.2447 16.9459 28.2594 16.9824C28.2741 17.0261 28.2814 17.0917 28.2888 17.1865L28.3034 17.4199L28.0831 17.3105L28.0538 17.0407C28.0503 16.9795 28.0429 16.9186 28.0317 16.8584C28.0267 16.8311 28.014 16.8058 27.995 16.7855L27.9069 16.7344L27.8702 16.7126L27.6719 17.0917L27.4883 16.9969Z" fill="#309E3A"></path><path d="M27.9434 16.5668L28.0829 16.6397C28.171 16.6835 28.2298 16.7127 28.2518 16.7127C28.2738 16.7127 28.3032 16.7127 28.3252 16.6981C28.3473 16.6908 28.362 16.6689 28.3766 16.6397C28.3913 16.6106 28.3987 16.5814 28.3913 16.5522C28.3823 16.5232 28.3643 16.4977 28.3399 16.4793C28.2969 16.4532 28.2528 16.4288 28.2077 16.4064L28.0609 16.3335L27.9434 16.5668Z" fill="white"></path><path d="M31.2927 18.8634C31.3402 18.7884 31.4027 18.7239 31.4762 18.6738C31.5257 18.6424 31.5804 18.6202 31.6378 18.6082C31.6911 18.5974 31.7461 18.5974 31.7994 18.6082C31.8728 18.6228 31.9389 18.652 32.005 18.6957C32.0621 18.731 32.1113 18.7778 32.1492 18.8331C32.1871 18.8883 32.213 18.9508 32.2253 19.0165C32.2473 19.1405 32.2106 19.279 32.1225 19.4176C32.0488 19.5381 31.9299 19.6246 31.792 19.6582C31.7263 19.6723 31.6583 19.6724 31.5925 19.6586C31.5266 19.6448 31.4645 19.6173 31.4102 19.578C31.353 19.5426 31.3039 19.4959 31.266 19.4406C31.228 19.3854 31.2021 19.3229 31.1898 19.2572C31.1678 19.1259 31.2045 18.9947 31.2927 18.8634Z" fill="#309E3A"></path><path d="M31.4757 18.9801C31.4023 19.0749 31.3802 19.1624 31.3949 19.2426C31.4003 19.2795 31.4136 19.3149 31.4339 19.3463C31.4541 19.3777 31.4809 19.4045 31.5124 19.4249C31.5859 19.4759 31.6593 19.4905 31.7327 19.4686C31.8062 19.4468 31.8796 19.3957 31.9457 19.2936C32.0118 19.1915 32.0412 19.104 32.0265 19.0311C32.0191 18.9582 31.9751 18.8926 31.909 18.8415C31.8429 18.7905 31.7621 18.7832 31.6887 18.8051C31.6152 18.8197 31.5418 18.878 31.4684 18.9801H31.4757Z" fill="white"></path><path d="M22.1641 14.9114L22.333 14.1968L22.8617 14.3207L22.8397 14.4374L22.4505 14.3499L22.4138 14.5103L22.7736 14.5905L22.7442 14.7145L22.3844 14.627L22.3403 14.8239L22.7442 14.9187L22.7148 15.0353L22.1641 14.9114Z" fill="#309E3A"></path></svg>