<?xml version="1.0" encoding="UTF-8"?>
<svg id="Capa_1" data-name="Capa 1" xmlns="http://www.w3.org/2000/svg" version="1.1" viewBox="0 0 155 79.5">
  <defs>
    <style>
      .cls-1 {
        fill: #fff;
        stroke-width: 0px;
      }
    </style>
  </defs>
  <path class="cls-1" d="M60,32.9c17.7,10.9,20.5,10.4,35.2.8,18.9-12.4,29.3,4.1,42.3,5.8,6.9.9,12.9-3,12.9-3-14,25.5-33.7,13.3-49.5,5.8-15-7-25,13.4-40.8,10.8-.5-.1-.8.4-.4.6,18.7,11.5,26.5,5.8,34.5.5,19.5-12.8,30.5,4.4,43.1,6.1,6.9.9,12.9-3,12.9-3-16.1,29.1-36.6,11.1-45.1,7.2-6.7-3.1-10.4-7-25.5.3-13.2,6.4-30.7,11.7-46.8,6.9,0,0,0,0-.1,0,1.9-5.1,4.7-11.9,9.7-11.8,1.4,0,9.4.5,10.2.4,1-.1,1.6-.8,1.7-1.5.4-1.7-.3-2.1-.4-2.7,0-.5.5-.7.9-1.1.7-.6.8-1.1.7-1.6-.1-.4-1.2-.6-1.5-.8-.3-.2-.2-.8.3-.8,2.7-.4,2.6-1.8,2.3-2.3-1.1-2,.6-2.4,1.3-2.5.9-.2,2.4-.8,2-2.3-.5-1.8-1.1-3.2-1.4-4.7-.6-2.5-1.2-4.7-.6-6.2.8-1.9,1.6-1.4,2.3-.9M138.1,17.8c-16-2.2-24.8-15.7-41.9-4.5-10.4,6.8-14.3,12.6-34.9-.1-10.3-6.3-16.5-7-22.3-7.3C20.4,4.6,4.6,19,3.8,37.8c-.5,10.1,3.1,19,9.9,25.4.8.7,1.8.5,2.2-.3l.2-.5,10.6-25.4s5.7-15,19.9-10.3c4.5,1.5,8.3,3,11.7,4,8.1,2.5,14,2.5,23.3-4.9,4.2-3.4,11.3-8.1,20.3-3.9,12.7,5.8,33.9,20.3,49.1-7.1,0,0-6.1,3.9-12.9,3"/>
</svg>