<?xml version="1.0" encoding="UTF-8"?>
<svg id="Capa_1" data-name="Capa 1" xmlns="http://www.w3.org/2000/svg" version="1.1" viewBox="0 0 600 79.5">
  <defs>
    <style>
      .cls-1 {
        fill: #fff;
        stroke-width: 0px;
      }
    </style>
  </defs>
  <g>
    <path class="cls-1" d="M586.4,11.4c0-2.7,2.1-4.7,4.9-4.7s4.9,2,4.9,4.7-2.1,4.7-4.9,4.7-4.9-2-4.9-4.7M595.3,11.4c0-2.3-1.6-3.8-3.9-3.8s-3.9,1.5-3.9,3.8,1.6,3.8,4,3.8,3.9-1.6,3.9-3.8M589.3,10.6v-1.3c0-.3-.2-.4-.6-.4s-.1,0-.1-.2c0-.2.1-.2.3-.2h.2c.1,0,.5,0,.9,0s.7,0,1.2,0c.9,0,2.4.2,2.4,1.5s-.2,1-1.1,1.6l1,1.1c.7.8.8.8.9.8s.2,0,.2.2c0,.2,0,.2-.5.2-.7,0-1.3,0-2.1-1l-.8-1h-.6v.5c0,1,0,1.1.1,1.1.1,0,.4,0,.5,0s.2,0,.2.2-.1.2-.2.2h-.2c-.1,0-.6,0-.9,0s-.7,0-.8,0h-.3c-.1,0-.4,0-.4-.2s0-.2.2-.2c.5,0,.5,0,.6-.3,0-.3,0-.6,0-1.4v-1.2ZM590.5,11.1c.2.1.5.2.8.2s.3,0,.5-.1c.3-.2.5-.5.5-.9,0-.6-.5-1.2-1.2-1.2s-.4,0-.5.1v1.9Z"/>
    <path class="cls-1" d="M192,7.2c-1.9,0-4,0-6.1.1-1.9,0-3.8.1-5.4.1s-2.3,0-4,0c-2.2,0-5-.2-7.4-.2s-2.4,0-2.4,1.4.7,1.4,2,1.4,2.4,0,2.9.2c2.1.5,2.7,1.4,2.9,4.2.2,2.7.2,5,.2,17.9v14.9c0,7.8,0,14.4-.4,18-.3,2.5-.7,3.9-1.8,4.1-.6.1-1.5.3-2.7.3s-1.9.7-1.9,1.3.3,1.5,2.2,1.5,4.2,0,6.3-.2c1.6,0,2.9-.1,3.7-.1s2,0,3.5,0c2.5,0,5.5.2,8.8.2s2.2-1.1,2.2-1.5-.2-1.3-1.9-1.3-2.8-.2-3.9-.3c-1.8-.3-2.3-1.6-2.5-4-.4-3.6-.4-10.3-.4-18.1V13.5c0-.7.2-1,.2-1,.5-.2,1.6-.3,2.9-.3s4.7.4,7.5,3.1c4,3.8,4.5,8.8,4.5,12.2,0,8.3-5.8,13.3-10,13.3s-2.9,0-2.9,1.6,1,1.3,1.5,1.4c.4,0,1.1.1,1.8.1,11.7,0,20.1-8.9,20.1-21.1s-2.1-8.4-4.1-10.5c-1.2-1.2-5-5-15.2-5"/>
    <path class="cls-1" d="M378,7.2c-2.8,0-5.1.1-6.7.2-.7,0-1.2,0-1.5,0-.7,0-1.7,0-2.9,0-2,0-4.5-.2-7.2-.2s-2.8,0-2.8,1.4.7,1.4,2,1.4,3.1,0,4.2.5c1.6.7,2.4,1.9,2.4,7l.8,36.8c-1-1.1-3-3.1-5.3-5.6-4.1-4.3-9.1-9.7-12.4-13-12.8-12.9-25.8-27-25.9-27.2-.3-.3-.5-.6-.8-.8-1-1.2-1.8-2-2.8-2-1.7,0-1.7,2.6-1.7,3.5l-.8,50.1c0,7.5-.5,9.4-2.1,9.9-1.2.3-2.8.4-3.6.4-1.6,0-2,.7-2,1.3,0,1.5,1.6,1.5,2.5,1.5,3.1,0,5.9-.1,7.7-.2.7,0,1.2,0,1.4,0,.6,0,1.3,0,2.3,0,1.9,0,4.5.2,8.1.2s2.6,0,2.6-1.5-.7-1.3-2.1-1.3-2.8,0-4.1-.6c-1.1-.4-2.3-1.7-2.5-8.8l-.9-34.1c.3.3.6.7,1,1.1,3.5,3.9,10.8,12,18.1,19.3,3.5,3.5,7.4,7.5,11.1,11.2,5.4,5.5,10.5,10.6,13.6,13.7,1,1,2.1,2.1,3.3,2.1,1.7,0,1.7-2.3,1.7-3.3l.9-53.4c0-5,.9-6.1,2.6-6.6.9-.2,1.5-.2,2.4-.2,1.9,0,2.2-.9,2.2-1.4,0-1.4-1.7-1.4-2.6-1.4"/>
    <path class="cls-1" d="M441.1,55.5c-1.3,0-1.5,1.1-1.7,2.2-.3,1.5-1.4,3.8-2.7,5.3-3.3,3.8-7.7,4.5-14.8,4.5-17.5,0-25.6-17.6-25.6-29.5s2.4-16.7,7.5-21.5c3.8-3.5,8.5-5.1,15.2-5.1s13.6,2,16.4,5.1c1.8,1.9,3,4.7,3.1,7.3,0,.8,0,2.5,1.5,2.5s1.6-1.6,1.6-2.5c0-.9.1-2.6.1-4.3,0-1.7,0-3.5.1-4.8.1-1.8.2-2.8.3-3.6,0-.5.1-.9.1-1.1s-.1-1.5-1.8-1.7c-1.3-.1-2.6-.4-4-.7-1.4-.3-2.8-.6-4.3-.8-3.6-.5-6.9-.9-12.2-.9-11.6,0-20.1,2.9-26.8,9.2-9.2,8.6-10,20.3-10,23.7,0,10.7,3.5,19.2,10.6,25.5h0c7.3,6.4,16.5,9.4,29,9.4s11.6-.5,15.3-2c1.6-.7,2.1-1.2,2.5-2.9.8-2.9,1.9-10.3,1.9-11.4,0-1.7-1-1.9-1.4-1.9"/>
    <path class="cls-1" d="M488,58.4c-1.2,0-1.4,1.1-1.5,1.8-.5,3.3-1.4,4.9-3.1,5.8-1.9.9-5,.9-6.9.9-7.7,0-8.4-1.1-8.6-6.5,0-1.7,0-6.1,0-9.6,0-1.4,0-2.7,0-3.5v-6.7c0,0,0-.2,0-.2,2.3,0,9.3,0,10.6.2,2.8.3,3.5,1.6,3.7,2.8.2.7.2,1.5.2,2.2,0,.3,0,.5,0,.7,0,.9.5,1.4,1.3,1.4,1.3,0,1.3-1.6,1.3-2.3s0-1.4.1-2.6c0-1.1.1-2.2.2-3,.2-2.8.4-4.4.5-5.3,0-.5,0-.8,0-1,0-1-.6-1.3-1.2-1.3s-1.1.5-1.6,1.2h-.1c-.5.8-1.6,1-3.2,1.2-1.1.1-5.5.2-12.1.2,0,0,0-.2,0-.3V13.2c0,0,0-.2,0-.2,1.9,0,9.5.2,10.7.3,3.6.5,4.2,1.3,4.6,2.6.3.9.4,2.2.4,2.8,0,1.2.5,1.8,1.3,1.8s1.2-.3,1.4-1.5c.1-.7.2-2.5.3-3.9,0-.8,0-1.4.1-1.7.2-2.6.4-3.9.5-4.6,0-.4.1-.7.1-.9,0-1.3-.8-1.4-1.1-1.4s-.7.1-1,.2c-.1,0-.3.1-.4.1-.7.2-2.1.4-3.2.5-1.3,0-13.8,0-19.1,0s-2.4,0-4.1-.1h-.7c-.9,0-1.9,0-3,0-1.1,0-2.2,0-3.2,0s-2.3,0-2.3,1.4.7,1.4,2,1.4,2.3,0,2.8.2c2,.5,2.6,1.4,2.8,4.2.1,2.7.1,5,.1,17.9v14.9c0,7.8,0,14.4-.4,18-.3,2.5-.7,3.9-1.7,4.1-.6.1-1.5.3-2.6.3-1.6,0-1.9.8-1.9,1.3s.3,1.5,2.2,1.5,1.6,0,2.5,0c.9,0,1.9,0,2.8,0,1.8,0,3.5,0,4.3,0h0c2.1,0,4.4,0,8,.3h2.2c2.9.1,6.5.3,11.1.3s4.1,0,4.8-2.7c.4-1.7,1-7.5,1-9.5s0-2.2-1.3-2.2"/>
    <path class="cls-1" d="M521.9,32.8l-2.3-1.8c-7.3-5.6-8.6-8.3-8.6-11.7,0-4.9,3.6-8.1,9.3-8.1s7.3,2.2,8.6,3.9c1.7,2.1,2,4.6,2,5.2,0,1.8.8,2.2,1.5,2.2,1.6,0,1.6-2,1.6-3.2,0-4.7.2-7.2.3-8.8,0-.6,0-1.1,0-1.4,0-1.3-1.2-1.5-1.6-1.6-2.5-.7-6-1.5-11.3-1.5-11.7,0-19.9,6.8-19.9,16.7s3.8,13.6,12.6,20.6l3.8,3.1c6.6,5.3,7.9,8.9,7.9,13s-3.7,9-10.5,9-9.3-1.1-11.3-8.1c-.4-1.5-.7-3.2-.7-4.1,0-1.7-.8-2.1-1.5-2.1-1.5,0-1.6,2-1.6,2.8v.3c-.1,1.6-.4,6.5-.4,10.9s.4,2.8,2,3.5c3.5,1.6,7.3,2.3,12.5,2.3s9.9-1.2,13.6-3.6c7.1-4.7,8.1-11.6,8.1-15.3,0-8.4-3.8-14.4-13.9-22.1"/>
    <path class="cls-1" d="M567,32.8l-2.3-1.8c-7.3-5.6-8.6-8.3-8.6-11.7,0-4.9,3.6-8.1,9.3-8.1s7.3,2.2,8.6,3.9c1.7,2.1,2,4.6,2,5.2,0,1.8.8,2.2,1.5,2.2,1.6,0,1.6-2,1.6-3.2,0-4.7.2-7.2.3-8.8,0-.6,0-1.1,0-1.4,0-1.3-1.2-1.5-1.6-1.6-2.5-.7-6-1.5-11.3-1.5-11.7,0-19.9,6.8-19.9,16.7s3.8,13.6,12.6,20.6l3.8,3.1c6.6,5.3,7.9,8.9,7.9,13s-3.7,9-10.5,9-9.3-1.1-11.3-8.1c-.4-1.5-.7-3.2-.7-4.1,0-1.7-.8-2.1-1.5-2.1-1.5,0-1.6,2-1.6,2.8v.3c-.1,1.8-.4,6.5-.4,10.8s.4,2.8,2,3.5c3.5,1.6,7.3,2.3,12.5,2.3s9.9-1.2,13.6-3.6c7.1-4.7,8.1-11.6,8.1-15.3,0-8.4-3.8-14.4-13.9-22.1"/>
    <path class="cls-1" d="M301.9,69.7c-1.2,0-2.9-.2-3.9-.3-1.9-.3-2.4-1.4-2.6-3.6-.3-3.6-.3-10.2-.3-18.5v-14.9c0-12.9,0-15.2.2-17.9.2-2.9.7-3.9,2.4-4.2.9-.2,1.5-.2,2.3-.2,1.3,0,1.9-.5,1.9-1.5s-1.7-1.3-2.3-1.3c-1.7,0-3.8,0-5.8.1-1.6,0-3,.1-3.9.1s-2.7,0-4.5-.1c-2,0-4.2-.1-5.8-.1s-2.5,0-2.5,1.3.6,1.5,1.9,1.5,2,.1,2.7.3c1,.3,2,.9,2.2,4.2.2,2.7.2,5,.2,17.9v14.9c0,8.3,0,14.9-.4,18.4-.2,2.5-.7,3.4-1.8,3.7-.5.1-1.3.3-2.4.3h-2.1c-.6,0-1.2,0-2-.2-1.2-.2-4.2-.9-8.4-5.5-4-4.5-8.6-10.7-14.3-18.4l-2.5-3.3c7.2-6.3,10.2-12.1,10.2-19.1s-3.7-10.7-5.7-12.1c-4.5-3.3-10.1-3.8-15-3.8s-3.3,0-5.4.1c-2.2,0-4.4.1-5.8.1s-1.8,0-3.2,0c-2.3,0-5.1-.2-7.7-.2s-2.4,0-2.4,1.4.7,1.4,2,1.4,2.4,0,2.9.2c2.1.5,2.7,1.4,2.9,4.2.2,2.7.2,5,.2,17.9v14.9c0,7.8,0,14.4-.4,18-.3,2.5-.7,3.9-1.8,4.1-.6.1-1.5.3-2.7.3s-1.9.7-1.9,1.3.3,1.5,2.2,1.5,4.4,0,6.5-.2c1.4,0,2.6,0,3.2,0s1.3,0,2.5,0c2.4,0,6,.2,9.1.2s2.2-.9,2.2-1.5-.4-1.3-1.6-1.3-2.6-.2-3.8-.3c-1.8-.3-2.3-1.6-2.5-4.1-.4-3.5-.4-10.3-.4-18.1v-1.2s6.9.2,6.9.2c.5,0,.7,0,.9.4.6.7,2.1,3,3.8,5.6,1.3,1.9,2.7,4.1,4,6.1,4.7,6.9,7.7,10.7,11.1,12.7,2.2,1.3,4.4,1.7,8.8,1.7h10c1.8,0,4.2,0,6.3-.2,1.6,0,2.9-.1,3.7-.1s2.1,0,3.6,0c2.5,0,5.5.2,8.7.2s2.1-1.1,2.1-1.5-.2-1.3-1.9-1.3M249.7,27.3c0,7.6-2.8,10.9-4.4,12.2-1.3,1-2.2,1.3-5.2,1.3s-4.4-.3-5.7-.8c-.2-.1-.3-.2-.3-.9V13.4c0-.5,0-.5.3-.6.9-.3,2.7-.3,4-.3,4.3,0,11.5,3.1,11.5,14.9"/>
  </g>
  <path class="cls-1" d="M60,32.9c17.7,10.9,20.5,10.4,35.2.8,18.9-12.4,29.3,4.1,42.3,5.8,6.9.9,12.9-3,12.9-3-14,25.5-33.7,13.3-49.5,5.8-15-7-25,13.4-40.8,10.8-.5-.1-.8.4-.4.6,18.7,11.5,26.5,5.8,34.5.5,19.5-12.8,30.5,4.4,43.1,6.1,6.9.9,12.9-3,12.9-3-16.1,29.1-36.6,11.1-45.1,7.2-6.7-3.1-10.4-7-25.5.3-13.2,6.4-30.7,11.7-46.8,6.9,0,0,0,0-.1,0,1.9-5.1,4.7-11.9,9.7-11.8,1.4,0,9.4.5,10.2.4,1-.1,1.6-.8,1.7-1.5.4-1.7-.3-2.1-.4-2.7,0-.5.5-.7.9-1.1.7-.6.8-1.1.7-1.6-.1-.4-1.2-.6-1.5-.8-.3-.2-.2-.8.3-.8,2.7-.4,2.6-1.8,2.3-2.3-1.1-2,.6-2.4,1.3-2.5.9-.2,2.4-.8,2-2.3-.5-1.8-1.1-3.2-1.4-4.7-.6-2.5-1.2-4.7-.6-6.2.8-1.9,1.6-1.4,2.3-.9M138.1,17.8c-16-2.2-24.8-15.7-41.9-4.5-10.4,6.8-14.3,12.6-34.9-.1-10.3-6.3-16.5-7-22.3-7.3C20.4,4.6,4.6,19,3.8,37.8c-.5,10.1,3.1,19,9.9,25.4.8.7,1.8.5,2.2-.3l.2-.5,10.6-25.4s5.7-15,19.9-10.3c4.5,1.5,8.3,3,11.7,4,8.1,2.5,14,2.5,23.3-4.9,4.2-3.4,11.3-8.1,20.3-3.9,12.7,5.8,33.9,20.3,49.1-7.1,0,0-6.1,3.9-12.9,3"/>
</svg>