<svg xmlns="http://www.w3.org/2000/svg" width="408" height="66" viewBox="0 0 408 66" fill="none"><path d="M358.486 35.0952C357.669 34.5378 356.743 34.07 355.728 33.7216C354.752 33.3832 353.746 33.0647 352.731 32.7661C351.865 32.5073 350.998 32.2386 350.162 31.9698C349.425 31.731 346.209 30.7356 346.209 28.3668C346.209 25.2514 349.614 24.5447 351.078 24.5746C352.542 24.6044 353.866 24.7936 355.111 25.2315C356.365 25.6694 358.287 26.7543 358.307 26.7643C358.765 27.0231 359.362 26.8738 359.651 26.4259L360.945 24.3855L360.527 24.0968C359.252 23.211 357.789 22.5143 356.176 21.9967C355.3 21.718 350.66 20.225 346.767 22.2555C342.874 24.2859 342.725 27.3018 342.725 28.6952C342.725 31.0741 343.82 33.2538 348.559 35.0753C349.555 35.4634 352.582 36.0606 355.449 37.4242C359.302 39.2656 357.58 42.6099 356.305 43.5753C355.26 44.3616 353.926 44.7399 352.353 44.7399C350.779 44.7399 349.336 44.4612 347.912 43.9237C346.488 43.3862 344.128 41.8335 344.109 41.8136C343.67 41.525 343.063 41.6344 342.744 42.0525L341.301 43.9934L341.699 44.3119C343.063 45.4167 344.706 46.3324 346.568 47.0291C348.44 47.7258 350.331 48.1339 352.203 48.0842C357.321 47.9349 359.681 45.4764 360.587 43.5355C362.03 40.45 361.015 38.0115 360.507 37.1654C360.019 36.3493 359.322 35.6625 358.486 35.0952Z" fill="white"></path><path d="M405.162 35.0952C404.345 34.5378 403.419 34.07 402.404 33.7216C401.428 33.3832 400.422 33.0647 399.407 32.7661C398.54 32.5073 397.674 32.2386 396.838 31.9698C396.101 31.731 392.885 30.7356 392.885 28.3668C392.885 25.2514 396.29 24.5447 397.754 24.5746C399.217 24.6044 400.542 24.7936 401.786 25.2315C403.041 25.6694 404.962 26.7543 404.982 26.7643C405.44 27.0231 406.038 26.8738 406.326 26.4259L407.621 24.3855L407.203 24.0968C405.928 23.211 404.465 22.5143 402.852 21.9967C401.975 21.718 397.336 20.225 393.443 22.2555C389.55 24.2859 389.4 27.3018 389.4 28.6952C389.4 31.0741 390.496 33.2538 395.235 35.0753C396.231 35.4634 399.257 36.0606 402.125 37.4242C405.978 39.2656 404.256 42.6099 402.981 43.5753C401.936 44.3616 400.601 44.7399 399.028 44.7399C397.455 44.7399 396.011 44.4612 394.588 43.9237C393.164 43.3862 390.804 41.8335 390.784 41.8136C390.346 41.525 389.739 41.6344 389.42 42.0525L387.977 43.9934L388.375 44.3119C389.739 45.4167 391.382 46.3324 393.244 47.0291C395.115 47.7258 397.007 48.1339 398.879 48.0842C403.997 47.9349 406.356 45.4764 407.262 43.5355C408.706 40.45 407.691 38.0115 407.183 37.1654C406.695 36.3493 405.998 35.6625 405.162 35.0952Z" fill="white"></path><path d="M134.134 35.0952C133.318 34.5378 132.392 34.07 131.376 33.7216C130.401 33.3832 129.395 33.0647 128.379 32.7661C127.513 32.5073 126.647 32.2386 125.811 31.9698C125.074 31.731 121.858 30.7356 121.858 28.3668C121.858 25.2514 125.263 24.5447 126.727 24.5746C128.19 24.6044 129.514 24.7936 130.759 25.2315C132.014 25.6694 133.935 26.7543 133.955 26.7643C134.413 27.0231 135.01 26.8738 135.299 26.4259L136.594 24.3855L136.175 24.0968C134.901 23.211 133.437 22.5143 131.824 21.9967C130.948 21.718 126.308 20.225 122.415 22.2555C118.522 24.2859 118.373 27.3018 118.373 28.6952C118.373 31.0741 119.468 33.2538 124.208 35.0753C125.203 35.4634 128.23 36.0606 131.097 37.4242C134.951 39.2656 133.228 42.6099 131.954 43.5753C130.908 44.3616 129.574 44.7399 128.001 44.7399C126.428 44.7399 124.984 44.4612 123.56 43.9237C122.137 43.3862 119.777 41.8335 119.757 41.8136C119.319 41.525 118.712 41.6344 118.393 42.0525L116.949 43.9934L117.347 44.3119C118.712 45.4167 120.354 46.3324 122.216 47.0291C124.088 47.7258 125.98 48.1339 127.852 48.0842C132.969 47.9349 135.329 45.4764 136.235 43.5355C137.679 40.45 136.663 38.0115 136.155 37.1654C135.668 36.3493 134.971 35.6625 134.134 35.0952Z" fill="white"></path><path d="M112.261 22.0864H113.525C114.123 22.0864 114.601 22.5642 114.601 23.1614V46.6212C114.601 47.2184 114.123 47.6961 113.525 47.6961H112.261C111.663 47.6961 111.186 47.2184 111.186 46.6212V23.1614C111.186 22.5642 111.663 22.0864 112.261 22.0864Z" fill="white"></path><path d="M212.135 21.9966C211.976 21.7477 211.697 21.6084 211.368 21.6084H209.815C209.307 21.6084 208.77 21.9667 208.56 22.4345L199.769 42.988L191.067 22.4445C190.868 21.9767 190.33 21.6184 189.812 21.6184H188.159C187.831 21.6184 187.552 21.7577 187.393 22.0065C187.234 22.2554 187.214 22.5639 187.353 22.8625L198.036 46.8897C198.245 47.3575 198.783 47.7058 199.291 47.7058H200.217C200.725 47.7058 201.262 47.3575 201.471 46.8897L212.155 22.8625C212.294 22.5639 212.274 22.2554 212.115 22.0065L212.135 21.9966Z" fill="white"></path><path d="M231.858 25.2018C230.832 23.9974 229.588 23.032 228.144 22.3452C226.7 21.6584 225.058 21.3101 223.245 21.3101C221.433 21.3101 219.87 21.6684 218.397 22.3751C216.933 23.0718 215.639 24.0372 214.543 25.2416C213.458 26.4459 212.602 27.8692 211.985 29.4717C211.377 31.0841 211.118 33.9308 211.108 34.0502C211.088 34.2791 211.059 34.6375 211.059 34.737C211.059 36.7276 211.397 38.559 212.064 40.1814C212.731 41.8038 213.647 43.2271 214.802 44.4016C215.957 45.5661 217.311 46.4818 218.835 47.1188C220.358 47.7558 221.981 48.0743 223.654 48.0743C230.494 48.0743 233.62 43.8343 233.789 43.6352C233.979 43.4063 234.128 43.1574 234.128 42.8787C234.128 42.5901 233.999 42.3114 233.779 42.1123L232.176 40.699L231.828 41.0672C230.832 42.1223 229.677 43.0081 228.403 43.7049C227.148 44.3916 225.585 44.7499 223.753 44.7499C222.598 44.7499 221.493 44.5409 220.448 44.1428C219.402 43.7347 218.466 43.1375 217.65 42.3612C216.833 41.5848 216.136 40.6194 215.589 39.4946C215.101 38.4993 214.772 36.5485 214.713 36.1802H234.924C234.924 36.1802 235.054 35.6427 235.054 34.6872C235.054 34.2692 234.775 31.0344 234.228 29.4319C233.68 27.8195 232.883 26.3862 231.868 25.1918L231.858 25.2018ZM231.4 33.0151H214.673C214.802 31.9501 215.071 30.9249 215.489 29.9793C215.977 28.8745 216.604 27.8991 217.351 27.0929C218.098 26.2966 218.974 25.6596 219.96 25.2117C220.945 24.7638 222.031 24.5349 223.166 24.5349C224.5 24.5349 225.665 24.7837 226.651 25.2714C227.646 25.7691 228.483 26.436 229.16 27.2521C229.837 28.0783 230.374 29.0437 230.763 30.1286C231.101 31.0941 231.35 32.6866 231.4 33.0151ZM234.915 36.1802C234.915 36.1802 235.044 35.1152 235.044 34.6872C235.044 32.6169 234.765 31.0344 234.218 29.4319" fill="white"></path><path d="M383.686 25.2018C382.66 23.9974 381.416 23.032 379.972 22.3452C378.528 21.6584 376.886 21.3101 375.074 21.3101C373.261 21.3101 371.698 21.6684 370.225 22.3751C368.761 23.0718 367.467 24.0372 366.372 25.2416C365.286 26.4459 364.43 27.8692 363.813 29.4717C363.205 31.0841 362.946 33.9308 362.936 34.0502C362.917 34.2791 362.887 34.6375 362.887 34.737C362.887 36.7276 363.225 38.559 363.892 40.1814C364.559 41.8038 365.475 43.2271 366.63 44.4016C367.785 45.5661 369.139 46.4818 370.663 47.1188C372.186 47.7558 373.809 48.0743 375.482 48.0743C382.322 48.0743 385.448 43.8343 385.618 43.6352C385.807 43.4063 385.956 43.1574 385.956 42.8787C385.956 42.5901 385.827 42.3114 385.608 42.1123L384.005 40.699L383.656 41.0672C382.66 42.1223 381.506 43.0081 380.231 43.7049C378.977 44.3916 377.413 44.7499 375.581 44.7499C374.426 44.7499 373.321 44.5409 372.276 44.1428C371.23 43.7347 370.294 43.1375 369.478 42.3612C368.662 41.5848 367.965 40.6194 367.417 39.4946C366.929 38.4993 366.601 36.5485 366.541 36.1802H386.753C386.753 36.1802 386.882 35.6427 386.882 34.6872C386.882 34.2692 386.603 31.0344 386.056 29.4319C385.508 27.8195 384.711 26.3862 383.696 25.1918L383.686 25.2018ZM383.238 33.0151H366.511C366.64 31.9501 366.909 30.9249 367.327 29.9793C367.815 28.8745 368.442 27.8991 369.189 27.0929C369.936 26.2966 370.812 25.6596 371.798 25.2117C372.784 24.7638 373.869 24.5349 375.004 24.5349C376.338 24.5349 377.503 24.7837 378.489 25.2714C379.484 25.7691 380.321 26.436 380.998 27.2521C381.675 28.0783 382.212 29.0437 382.601 30.1286C382.939 31.0941 383.188 32.6866 383.238 33.0151ZM386.743 36.1802C386.743 36.1802 386.872 35.1152 386.872 34.6872C386.872 32.6169 386.593 31.0344 386.046 29.4319" fill="white"></path><path d="M248.048 21.8673C245.091 22.574 242.582 24.0869 240.59 26.3662C237.882 29.4716 237.404 32.3083 237.404 37.1256V46.6111C237.404 47.2083 237.882 47.686 238.48 47.686H239.744C240.341 47.686 240.819 47.2083 240.819 46.6111V36.7474C240.819 34.707 240.819 31.303 243.07 28.6952C244.085 27.3515 245.708 26.1372 247.192 25.5898C248.396 25.1419 249.681 24.9827 250.159 24.9229C250.228 24.9229 250.288 24.903 250.328 24.903C250.398 24.8931 250.477 24.8831 250.547 24.8732L250.716 24.8533C251.343 24.7736 251.692 24.3855 251.692 23.7485V21.499H251.164C250.079 21.499 249.053 21.6185 248.028 21.8573L248.048 21.8673Z" fill="white"></path><path d="M106.554 15.6068C106.355 15.3978 106.076 15.2783 105.788 15.2783H104.523C103.926 15.2783 103.448 15.7561 103.448 16.3533V25.57C101.058 22.8826 97.6729 21.31 94.1384 21.31C87.1289 21.31 81.4238 27.3018 81.4238 34.6573C81.4238 42.0127 87.1289 48.0145 94.1384 48.0145C101.148 48.0145 106.853 42.0227 106.853 34.6573V16.3632C106.853 16.0746 106.753 15.8058 106.554 15.5968V15.6068ZM103.478 34.6573C103.478 40.2112 99.2859 44.72 94.1384 44.72C88.9908 44.72 84.7991 40.2012 84.7991 34.6573C84.7991 29.1133 88.9908 24.5946 94.1384 24.5946C99.2859 24.5946 103.478 29.1133 103.478 34.6573Z" fill="white"></path><path d="M302.58 21.8772C299.523 22.6138 296.934 24.1764 294.883 26.5254C292.086 29.7304 291.598 32.6666 291.598 37.6333V46.5713C291.598 47.1784 292.086 47.6661 292.693 47.6661H293.997C294.605 47.6661 295.092 47.1784 295.092 46.5713V37.2451C295.092 35.135 295.092 31.6115 297.422 28.9142C298.478 27.5307 300.15 26.2666 301.694 25.6893C302.948 25.2315 304.262 25.0623 304.76 25.0026C304.84 25.0026 304.89 24.9827 304.939 24.9827C305.009 24.9727 305.089 24.9628 305.168 24.9528C305.228 24.9528 305.298 24.9428 305.348 24.9329C305.806 24.8732 306.343 24.6343 306.343 23.8082V21.499H305.816C304.7 21.499 303.635 21.6185 302.58 21.8673V21.8772Z" fill="white"></path><path d="M336.343 21.6187H337.826C338.364 21.6187 338.802 22.0566 338.802 22.5941V46.7108C338.802 47.2483 338.364 47.6862 337.826 47.6862H336.343C335.805 47.6862 335.367 47.2483 335.367 46.7108V22.5941C335.367 22.0566 335.805 21.6187 336.343 21.6187Z" fill="white"></path><path d="M329.552 21.6084H328.068C327.531 21.6084 327.092 22.0463 327.092 22.5838V36.4089C327.092 36.4089 327.092 36.4487 327.092 36.4686V36.608C327.083 36.9165 327.063 37.1952 327.033 37.454V37.5037C327.033 38.2104 326.873 40.6788 325.181 42.5998C323.906 44.0331 322.124 44.7398 319.735 44.7398H319.008C316.608 44.7398 314.826 44.043 313.562 42.5998C311.869 40.6788 311.72 38.2204 311.71 37.5037V37.454C311.68 37.1952 311.66 36.9066 311.66 36.598V22.5838C311.66 22.0463 311.212 21.6084 310.674 21.6084H309.191C308.653 21.6084 308.215 22.0463 308.215 22.5838V37.2251C308.215 38.1109 308.304 39.0067 308.474 39.8826C308.593 40.4997 308.733 41.0372 308.902 41.5149C309.36 42.8287 310.057 43.9833 310.963 44.9388C311.869 45.8943 312.994 46.6508 314.288 47.1783C315.583 47.7058 317.056 47.9746 318.679 47.9746H320.093C321.716 47.9746 323.19 47.7058 324.484 47.1783C325.778 46.6508 326.903 45.8943 327.809 44.9388C328.715 43.9833 329.412 42.8287 329.87 41.5149C330.04 41.0372 330.179 40.4997 330.298 39.8826C330.468 39.0067 330.557 38.1209 330.557 37.2251V22.5838C330.557 22.0463 330.119 21.6084 329.582 21.6084H329.552Z" fill="white"></path><path d="M161.127 41.8832C160.45 41.286 159.424 40.3703 159.255 40.221C157.542 42.9482 154.605 44.7597 151.26 44.7597C145.973 44.7597 141.691 40.2509 141.691 34.697C141.691 29.1431 145.973 24.6343 151.26 24.6343C154.117 24.6343 156.686 25.958 158.438 28.0482C158.438 28.0482 159.285 28.9341 160.111 28.088C160.937 27.242 161.634 26.5154 161.634 26.5154C159.235 23.3602 155.481 21.3198 151.25 21.3198C144.001 21.3198 138.127 27.3117 138.127 34.697C138.127 42.0823 144.001 48.0741 151.25 48.0741C155.232 48.0741 158.807 46.2627 161.216 43.4061C161.266 43.3364 161.824 42.5103 161.117 41.8832H161.127Z" fill="white"></path><path d="M287.914 41.8832C287.237 41.286 286.211 40.3703 286.042 40.221C284.329 42.9482 281.392 44.7597 278.047 44.7597C272.76 44.7597 268.478 40.2509 268.478 34.697C268.478 29.1431 272.76 24.6343 278.047 24.6343C280.904 24.6343 283.473 25.958 285.225 28.0482C285.225 28.0482 286.072 28.9341 286.898 28.088C287.725 27.242 288.421 26.5154 288.421 26.5154C286.022 23.3602 282.268 21.3198 278.037 21.3198C270.788 21.3198 264.914 27.3117 264.914 34.697C264.914 42.0823 270.788 48.0741 278.037 48.0741C282.019 48.0741 285.594 46.2627 288.003 43.4061C288.053 43.3364 288.611 42.5103 287.904 41.8832H287.914Z" fill="white"></path><path d="M175.395 21.3101C168.136 21.3101 162.252 27.3019 162.252 34.6872C162.252 42.0725 168.136 48.0644 175.395 48.0644C182.653 48.0644 188.537 42.0725 188.537 34.6872C188.537 27.3019 182.653 21.3101 175.395 21.3101ZM175.395 44.7997C170.058 44.7997 165.727 40.2809 165.727 34.6972C165.727 29.1134 170.058 24.5946 175.395 24.5946C180.731 24.5946 185.062 29.1134 185.062 34.6972C185.062 40.2809 180.731 44.7997 175.395 44.7997Z" fill="white"></path><path d="M33.006 65.9901C51.2347 65.9901 66.012 51.2177 66.012 32.995C66.012 14.7724 51.2347 0 33.006 0C14.7773 0 0 14.7724 0 32.995C0 51.2177 14.7773 65.9901 33.006 65.9901Z" fill="url(#paint0_linear_4385_4226)"></path><path d="M21.8347 43.7348C11.4301 33.3336 9.18991 17.8563 15.1041 5.27539C6.01376 11.1578 0 21.3698 0 32.9952C0 51.2196 14.7755 65.9902 33.006 65.9902C45.0335 65.9902 55.5576 59.5604 61.3225 49.9555C48.5582 56.4849 32.5181 54.4146 21.8248 43.7348H21.8347Z" fill="url(#paint1_linear_4385_4226)"></path><path d="M50.9178 5.27539C56.832 17.8663 54.5917 33.3336 44.1871 43.7348C33.4938 54.4246 17.4538 56.4948 4.68945 49.9555C10.4643 59.5604 20.9784 65.9902 33.0059 65.9902C51.2364 65.9902 66.0119 51.2196 66.0119 32.9952C66.0119 21.3698 59.9982 11.1478 50.9078 5.27539H50.9178Z" fill="url(#paint2_linear_4385_4226)"></path><path d="M33.0051 25.2611C31.4319 21.7974 27.9471 19.3887 23.8948 19.3887C18.3689 19.3887 13.8984 23.8676 13.8984 29.3817C13.8984 36.4784 23.5165 47.0388 33.015 51.1694C42.5136 47.0388 52.1316 36.4684 52.1316 29.3817C52.1316 23.8577 47.6512 19.3887 42.1352 19.3887C38.0829 19.3887 34.5882 21.7974 33.025 25.2611H33.0051Z" fill="white"></path><defs><linearGradient id="paint0_linear_4385_4226" x1="27.739" y1="32.7362" x2="-19.6741" y2="30.3957" gradientUnits="userSpaceOnUse"><stop stop-color="#FF006B"></stop><stop offset="1" stop-color="#1E297E"></stop></linearGradient><linearGradient id="paint1_linear_4385_4226" x1="27.8087" y1="37.713" x2="38.4362" y2="63.8528" gradientUnits="userSpaceOnUse"><stop stop-color="#FF006B"></stop><stop offset="1" stop-color="#1E297E"></stop></linearGradient><linearGradient id="paint2_linear_4385_4226" x1="35.1964" y1="29.2627" x2="34.5496" y2="-17.7067" gradientUnits="userSpaceOnUse"><stop stop-color="#FF006B"></stop><stop offset="1" stop-color="#1E297E"></stop></linearGradient></defs></svg>