<svg xmlns="http://www.w3.org/2000/svg" width="45" height="34" viewBox="0 0 45 34" fill="none"><path d="M0 0H44.6582V33.4937H0V0Z" fill="white"></path><path d="M18.5611 3.71924H44.6582V7.44541H18.5611V3.71924ZM18.5611 11.1646H44.6582V14.8838H18.5611V11.1646ZM0 18.61H44.6582V22.3291H0V18.61ZM0 26.0483H44.6582V29.7745H0V26.0483Z" fill="#0038A8"></path><path d="M8.88221 11.1215L9.49819 12.0413C6.96709 13.873 8.51236 14.9562 6.71866 15.5425C7.83427 14.4538 6.543 14.362 7.48295 12.0928" fill="#FCD116"></path><path d="M8.88221 11.1215L9.49819 12.0413C6.96709 13.873 8.51236 14.9562 6.71867 15.5425C7.83427 14.4538 6.543 14.362 7.48295 12.0928" stroke="black" stroke-width="0.476145" stroke-miterlimit="20" stroke-linecap="square"></path><path d="M8.44164 11.3824C7.04516 13.6841 7.96101 14.9496 6.7184 15.5427" stroke="black" stroke-width="0.476145" stroke-miterlimit="20"></path><path d="M9.30232 9.30225H10.5304L9.30232 16.0568L8.07422 9.30225H9.30232V16.0568V9.30225Z" fill="#FCD116"></path><path d="M9.30232 9.30225H10.5304L9.30232 16.0568M9.30232 9.30225H8.07422L9.30232 16.0568M9.30232 9.30225V16.0568" stroke="black" stroke-width="0.476145" stroke-miterlimit="20"></path><path d="M7.71771 10.2909L7.50289 11.3769C4.41792 10.8823 4.74468 12.7409 3.06176 11.8871C4.62046 11.9061 3.77228 10.9282 6.04152 9.98824" fill="#FCD116"></path><path d="M7.71771 10.2909L7.50289 11.3769C4.41792 10.8823 4.74468 12.7409 3.06176 11.8871C4.62046 11.9061 3.77228 10.9282 6.04152 9.98824" stroke="black" stroke-width="0.476145" stroke-miterlimit="20" stroke-linecap="square"></path><path d="M7.22029 10.1638C4.6053 10.8039 4.35803 12.3464 3.06003 11.887" stroke="black" stroke-width="0.476145" stroke-miterlimit="20"></path><path d="M9.30199 9.30199L10.1704 10.1704L4.52581 14.0782L8.43359 8.43359L9.30199 9.30199L4.52581 14.0782L9.30199 9.30199Z" fill="#FCD116"></path><path d="M9.30199 9.30199L10.1704 10.1704L4.52581 14.0782M9.30199 9.30199L8.43359 8.43359L4.52581 14.0782M9.30199 9.30199L4.52581 14.0782" stroke="black" stroke-width="0.476145" stroke-miterlimit="20"></path><path d="M7.48541 8.88075L6.56562 9.49672C4.73392 6.96563 3.65075 8.51089 3.06444 6.7172C4.15317 7.83281 4.24494 6.54154 6.51417 7.48148" fill="#FCD116"></path><path d="M7.48541 8.88075L6.56562 9.49672C4.73392 6.96563 3.65075 8.51089 3.06444 6.7172C4.15317 7.83281 4.24494 6.54154 6.51417 7.48148" stroke="black" stroke-width="0.476145" stroke-miterlimit="20" stroke-linecap="square"></path><path d="M7.22502 8.44017C4.92334 7.04369 3.6578 7.95955 3.06476 6.71694" stroke="black" stroke-width="0.476145" stroke-miterlimit="20"></path><path d="M9.30469 9.30183V10.5299L2.55014 9.30183L9.30469 8.07373V9.30183H2.55014H9.30469Z" fill="#FCD116"></path><path d="M9.30469 9.30183V10.5299L2.55014 9.30183M9.30469 9.30183V8.07373L2.55014 9.30183M9.30469 9.30183H2.55014" stroke="black" stroke-width="0.476145" stroke-miterlimit="20"></path><path d="M8.31505 7.71771L7.22911 7.50289C7.72365 4.41792 5.86507 4.74468 6.71881 3.06176C6.69981 4.62046 7.67777 3.77228 8.61771 6.04152" fill="#FCD116"></path><path d="M8.31505 7.71771L7.22911 7.50289C7.72365 4.41792 5.86507 4.74468 6.71882 3.06176C6.69981 4.62046 7.67777 3.77228 8.61771 6.04152" stroke="black" stroke-width="0.476145" stroke-miterlimit="20" stroke-linecap="square"></path><path d="M8.44313 7.22224C7.80306 4.60725 6.26057 4.35998 6.71989 3.06199" stroke="black" stroke-width="0.476145" stroke-miterlimit="20"></path><path d="M9.30348 9.30199L8.43508 10.1704L4.52729 4.52581L10.1719 8.43359L9.30348 9.30199L4.52729 4.52581L9.30348 9.30199Z" fill="#FCD116"></path><path d="M9.30348 9.30199L8.43508 10.1704L4.52729 4.52581M9.30348 9.30199L10.1719 8.43359L4.52729 4.52581M9.30348 9.30199L4.52729 4.52581" stroke="black" stroke-width="0.476145" stroke-miterlimit="20"></path><path d="M9.72326 7.48248L9.10728 6.56269C11.6384 4.73099 10.0931 3.64783 11.8868 3.06151C10.7712 4.15024 12.0625 4.24201 11.1225 6.51124" fill="#FCD116"></path><path d="M9.72326 7.48248L9.10728 6.56269C11.6384 4.73099 10.0931 3.64783 11.8868 3.06151C10.7712 4.15024 12.0625 4.24201 11.1225 6.51124" stroke="black" stroke-width="0.476145" stroke-miterlimit="20" stroke-linecap="square"></path><path d="M10.1638 7.2216C11.5603 4.91993 10.6445 3.65438 11.8871 3.06135" stroke="black" stroke-width="0.476145" stroke-miterlimit="20"></path><path d="M9.3012 9.30176H8.0731L9.3012 2.54721L10.5293 9.30176H9.3012V2.54721V9.30176Z" fill="#FCD116"></path><path d="M9.3012 9.30176H8.0731L9.3012 2.54721M9.3012 9.30176H10.5293L9.3012 2.54721M9.3012 9.30176V2.54721" stroke="black" stroke-width="0.476145" stroke-miterlimit="20"></path><path d="M10.8858 8.3131L11.1006 7.22715C14.1856 7.7217 13.8588 5.86312 15.5418 6.71686C13.9831 6.69786 14.8312 7.67581 12.562 8.61576" fill="#FCD116"></path><path d="M10.8858 8.3131L11.1006 7.22715C14.1856 7.7217 13.8588 5.86312 15.5418 6.71686C13.9831 6.69786 14.8312 7.67581 12.562 8.61576" stroke="black" stroke-width="0.476145" stroke-miterlimit="20" stroke-linecap="square"></path><path d="M11.3832 8.4402C13.9982 7.80013 14.2455 6.25764 15.5435 6.71696" stroke="black" stroke-width="0.476145" stroke-miterlimit="20"></path><path d="M9.30152 9.30201L8.43313 8.43362L14.0777 4.52583L10.1699 10.1704L9.30152 9.30201L14.0777 4.52583L9.30152 9.30201Z" fill="#FCD116"></path><path d="M9.30152 9.30201L8.43313 8.43362L14.0777 4.52583M9.30152 9.30201L10.1699 10.1704L14.0777 4.52583M9.30152 9.30201L14.0777 4.52583" stroke="black" stroke-width="0.476145" stroke-miterlimit="20"></path><path d="M11.1181 9.72326L12.0379 9.10728C13.8696 11.6384 14.9528 10.0931 15.5391 11.8868C14.4503 10.7712 14.3586 12.0625 12.0893 11.1225" fill="#FCD116"></path><path d="M11.1181 9.72326L12.0379 9.10728C13.8696 11.6384 14.9528 10.0931 15.5391 11.8868C14.4503 10.7712 14.3586 12.0625 12.0893 11.1225" stroke="black" stroke-width="0.476145" stroke-miterlimit="20" stroke-linecap="square"></path><path d="M11.3785 10.1638C13.6802 11.5603 14.9457 10.6445 15.5388 11.8871" stroke="black" stroke-width="0.476145" stroke-miterlimit="20"></path><path d="M9.29883 9.30217V8.07407L16.0534 9.30217L9.29883 10.5303V9.30217H16.0534H9.29883Z" fill="#FCD116"></path><path d="M9.29883 9.30217V8.07408L16.0534 9.30217M9.29883 9.30217V10.5303L16.0534 9.30217M9.29883 9.30217H16.0534" stroke="black" stroke-width="0.476145" stroke-miterlimit="20"></path><path d="M10.2885 10.8863L11.3744 11.1011C10.8799 14.1861 12.7384 13.8593 11.8847 15.5422C11.9037 13.9835 10.9257 14.8317 9.9858 12.5625" fill="#FCD116"></path><path d="M10.2885 10.8863L11.3744 11.1011C10.8799 14.1861 12.7384 13.8593 11.8847 15.5422C11.9037 13.9835 10.9257 14.8317 9.9858 12.5625" stroke="black" stroke-width="0.476145" stroke-miterlimit="20" stroke-linecap="square"></path><path d="M10.1604 11.3818C10.8005 13.9968 12.3429 14.244 11.8836 15.542" stroke="black" stroke-width="0.476145" stroke-miterlimit="20"></path><path d="M9.30004 9.30201L10.1684 8.43362L14.0762 14.0782L8.43164 10.1704L9.30004 9.30201L14.0762 14.0782L9.30004 9.30201Z" fill="#FCD116"></path><path d="M9.30004 9.30201L10.1684 8.43362L14.0762 14.0782M9.30004 9.30201L8.43164 10.1704L14.0762 14.0782M9.30004 9.30201L14.0762 14.0782" stroke="black" stroke-width="0.476145" stroke-miterlimit="20"></path><path d="M9.30034 11.5533C10.5438 11.5533 11.5519 10.5453 11.5519 9.30181C11.5519 8.05833 10.5438 7.05029 9.30034 7.05029C8.05687 7.05029 7.04883 8.05833 7.04883 9.30181C7.04883 10.5453 8.05687 11.5533 9.30034 11.5533Z" fill="#FCD116" stroke="black" stroke-width="0.476145" stroke-miterlimit="20"></path><path d="M10.9602 8.40051C10.8169 8.56426 10.735 8.27771 10.2233 8.27771C9.71161 8.27771 9.62974 8.58473 9.54787 8.52332C9.466 8.46192 9.9777 8.09349 10.1414 8.07302C10.3052 8.05256 10.776 8.2163 10.9602 8.40051ZM10.3666 8.58473C10.5099 8.70754 10.3871 8.97362 10.2438 8.97362C10.1005 8.97362 9.83442 8.728 9.95723 8.56426" fill="black"></path><path d="M9.68945 8.76898C9.70992 8.52336 9.9146 8.48242 10.2421 8.48242C10.5696 8.48242 10.7129 8.72804 10.8357 8.78944C10.6924 8.78944 10.5696 8.58476 10.2421 8.58476C9.9146 8.58476 9.9146 8.58476 9.68945 8.78944M9.75086 8.83038C9.83273 8.70757 9.93507 8.95319 10.1602 8.95319C10.3854 8.95319 10.5082 8.89178 10.6515 8.78944C10.7947 8.6871 10.4468 9.03506 10.2216 9.03506C9.99647 9.03506 9.68945 8.91225 9.75086 8.83038Z" fill="black"></path><path d="M10.4478 8.95286C10.7139 8.80958 10.5501 8.6049 10.4478 8.56396C10.4887 8.6049 10.6525 8.80958 10.4478 8.95286ZM9.30156 10.1809C9.42437 10.1809 9.4653 10.14 9.62905 10.14C9.79279 10.14 10.1817 10.3652 10.4068 10.2833C9.93607 10.4675 10.1203 10.3447 9.30156 10.3447H9.19922M10.4887 10.4675C10.4068 10.3242 10.4273 10.3652 10.2636 10.14C10.4273 10.2628 10.4682 10.3242 10.4887 10.4675ZM9.30156 10.6722C9.81326 10.6722 9.73139 10.5698 10.4068 10.2833C9.9156 10.3447 9.81326 10.5084 9.30156 10.5084H9.19922M9.30156 9.91486C9.44484 9.91486 9.48577 9.81252 9.64952 9.81252C9.81326 9.81252 10.0384 9.87392 10.1408 9.9558C10.1612 9.97626 10.0793 9.79205 9.9156 9.77158C9.75186 9.75112 9.81326 9.48503 9.62905 9.44409C9.62905 9.52597 9.69045 9.5055 9.71092 9.62831C9.71092 9.73065 9.52671 9.73065 9.48577 9.62831C9.52671 9.79205 9.4039 9.79205 9.30156 9.79205" fill="black"></path><path d="M7.64139 8.40051C7.78467 8.56426 7.86654 8.27771 8.37825 8.27771C8.88995 8.27771 8.97182 8.58473 9.05369 8.52332C9.13557 8.46192 8.62386 8.09349 8.46012 8.07302C8.29637 8.05256 7.82561 8.2163 7.64139 8.40051ZM8.23497 8.58473C8.09169 8.70754 8.2145 8.97362 8.35778 8.97362C8.50105 8.97362 8.76714 8.728 8.64433 8.56426" fill="black"></path><path d="M8.91211 8.76898C8.89164 8.52336 8.68696 8.48242 8.35947 8.48242C8.03198 8.48242 7.8887 8.72804 7.7659 8.78944C7.90917 8.78944 8.03198 8.58476 8.35947 8.58476C8.68696 8.58476 8.68696 8.58476 8.91211 8.78944M8.85071 8.83038C8.76883 8.70757 8.66649 8.95319 8.44134 8.95319C8.21619 8.95319 8.09338 8.89178 7.95011 8.78944C7.80683 8.6871 8.15479 9.03506 8.37994 9.03506C8.60509 9.03506 8.91211 8.91225 8.85071 8.83038Z" fill="black"></path><path d="M8.15379 8.95335C7.8877 8.81007 8.05145 8.60539 8.15379 8.56445C8.11285 8.60539 7.94911 8.81007 8.15379 8.95335ZM9.3 10.1814C9.17719 10.1814 9.13626 10.1405 8.97251 10.1405C8.80877 10.1405 8.41987 10.3656 8.19473 10.2838C8.66549 10.468 8.48128 10.3452 9.3 10.3452H9.40234M8.11285 10.468C8.19473 10.3247 8.17426 10.3656 8.338 10.1405C8.17426 10.2633 8.13332 10.3247 8.11285 10.468ZM9.3 10.6727C8.7883 10.6727 8.87017 10.5703 8.19473 10.2838C8.68596 10.3452 8.7883 10.5089 9.3 10.5089H9.40234M9.3 9.91535C9.15673 9.91535 9.11579 9.81301 8.95205 9.81301C8.7883 9.81301 8.56315 9.87441 8.46081 9.95628C8.44034 9.97675 8.52221 9.79254 8.68596 9.77207C8.8497 9.7516 8.7883 9.48552 8.97251 9.44458C8.97251 9.52645 8.91111 9.50599 8.89064 9.62879C8.89064 9.73114 9.07485 9.73114 9.11579 9.62879C9.07485 9.79254 9.19766 9.79254 9.3 9.79254" fill="black"></path><path d="M9.30222 10.8569C9.19988 10.8569 8.9338 10.9183 9.30222 10.9183C9.67065 10.9183 9.40456 10.8569 9.30222 10.8569Z" fill="black"></path></svg>